<?xml version="1.0" standalone="no"?>
<svg xmlns="http://www.w3.org/2000/svg" id="svg-schematic" width="491.5" height="339.261962890625" viewBox="0 0 491.5 339.261962890625"><defs><marker id="arrowHead-schematic" viewBox="0 0 10 10" markerWidth="6" markerHeight="6" refX="5" refY="5" orient="auto" fill="#404660"><path d="M 0 0 L 10 5 L 0 10 z"/></marker></defs><style type="text/css">
#svg-schematic text {
  fill: #2d3142;
  font-weight: 400;
  font-family: "Nunito", sans-serif;
}

#svg-schematic text.component-reference,
#svg-schematic text.component-value {
  font-weight: 600;
}

#svg-schematic .arrowGroup path {
  stroke: #404660;
  stroke-width: 1;
  stroke-linecap: round;
  fill: none;
}

#svg-schematic .wireGroup path,
#svg-schematic path.wire {
  stroke: #2d3142;
  stroke-width: 0.75;
  stroke-linecap: round;
  fill: none;
}
// For debugging
#svg-schematic path.wire.temporary_wire {
  stroke: #f7a541 !important;
}</style><g class="circuit-contents schematic" transform="translate(-2185, -2025)"><g data-source-id="f619c8aaf86ce2163600d389bbbc638c" data-source-name="Raspberry Pi Pico" data-width="90" data-height="235" class="component" id="part_14" transform="translate(2440,2065) scale(1,1) rotate(0,0,0)"><rect class="helper-box" x="3.5" y="5" width="83" height="230.30418395996094" fill="none"/>
 <rect x="15" y="5" width="59.982" height="220" rx="1" ry="1" fill="#fbdd71" stroke="#2d3142"/>
 <g transform="translate(-10,5)">
  <title>Left Pin</title>
  <line x1="25" x2="15" y1="15" y2="15" fill="none" stroke="#2d3142" stroke-width=".75"/>
  <text x="22.5" y="13" fill="#2d3142" font-family="Nunito" font-size="6px" font-weight="500" text-anchor="end" direction="" flipped="">1</text>
  <text x="27.5" y="17" fill="#2d3142" font-family="Nunito" font-size="6px" font-weight="500" direction="" flipped="">GP0</text>
  
 </g>
 <g transform="translate(-10,65)">
  <title>Left Pin</title>
  <line x1="25" x2="15" y1="15" y2="15" fill="none" stroke="#2d3142" stroke-width=".75"/>
  <text x="22.5" y="13" fill="#2d3142" font-family="Nunito" font-size="6px" font-weight="500" text-anchor="end" direction="" flipped="">7</text>
  <text x="27.5" y="17" fill="#2d3142" font-family="Nunito" font-size="6px" font-weight="500" direction="" flipped="">GP5</text>
  
 </g>
 <g transform="translate(-10 44.975)">
  <title>Left Pin</title>
  <line x1="25" x2="15" y1="15" y2="15" fill="none" stroke="#2d3142" stroke-width=".75"/>
  <text x="22.5" y="13" fill="#2d3142" font-family="Nunito" font-size="6px" font-weight="500" text-anchor="end" direction="" flipped="">5</text>
  <text x="27.5" y="17" fill="#2d3142" font-family="Nunito" font-size="6px" font-weight="500" direction="" flipped="">GP3</text>
  
 </g>
 <g transform="translate(-10,105)">
  <title>Left Pin</title>
  <line x1="25" x2="15" y1="15" y2="15" fill="none" stroke="#2d3142" stroke-width=".75"/>
  <text x="22.5" y="13" fill="#2d3142" font-family="Nunito" font-size="6px" font-weight="500" text-anchor="end" direction="" flipped="">11</text>
  <text x="27.5" y="17" fill="#2d3142" font-family="Nunito" font-size="6px" font-weight="500" direction="" flipped="">GP8</text>
  
 </g>
 <g transform="translate(60,5)">
  <title>Right Pin</title>
  <line x1="15" x2="25" y1="15" y2="15" fill="none" stroke="#2d3142" stroke-width=".75"/>
  <text x="17.5" y="13" fill="#2d3142" font-family="Nunito" font-size="6px" font-weight="500" direction="" flipped="">40</text>
  <text x="12.5" y="17" fill="#2d3142" font-family="Nunito" font-size="6px" font-weight="500" text-anchor="end" direction="" flipped="">VBUS</text>
  
 </g>
 <g transform="translate(60,155)">
  <title>Right Pin</title>
  <line x1="15" x2="25" y1="15" y2="15" fill="none" stroke="#2d3142" stroke-width=".75"/>
  <text x="17.5" y="13" fill="#2d3142" font-family="Nunito" font-size="6px" font-weight="500" direction="" flipped="">25</text>
  <text x="12.5" y="17" fill="#2d3142" font-family="Nunito" font-size="6px" font-weight="500" text-anchor="end" direction="" flipped="">GP19</text>
  
 </g>
 <g transform="translate(60,55)">
  <title>Right Pin</title>
  <line x1="15" x2="25" y1="15" y2="15" fill="none" stroke="#2d3142" stroke-width=".75"/>
  <text x="17.5" y="13" fill="#2d3142" font-family="Nunito" font-size="6px" font-weight="500" direction="" flipped="">35</text>
  <text x="12.5" y="17" fill="#2d3142" font-family="Nunito" font-size="6px" font-weight="500" text-anchor="end" direction="" flipped="">ADC_VREF</text>
  
 </g>
 <g transform="translate(60,65)">
  <title>Right Pin</title>
  <line x1="15" x2="25" y1="15" y2="15" fill="none" stroke="#2d3142" stroke-width=".75"/>
  <text x="17.5" y="13" fill="#2d3142" font-family="Nunito" font-size="6px" font-weight="500" direction="" flipped="">34</text>
  <text x="12.5" y="17" fill="#2d3142" font-family="Nunito" font-size="6px" font-weight="500" text-anchor="end" direction="" flipped="">GP28</text>
  
 </g>
 <g transform="translate(60,15)">
  <title>Right Pin</title>
  <line x1="15" x2="25" y1="15" y2="15" fill="none" stroke="#2d3142" stroke-width=".75"/>
  <text x="17.5" y="13" fill="#2d3142" font-family="Nunito" font-size="6px" font-weight="500" direction="" flipped="">39</text>
  <text x="12.5" y="17" fill="#2d3142" font-family="Nunito" font-size="6px" font-weight="500" text-anchor="end" direction="" flipped="">VSYS</text>
  
 </g>
 <g transform="translate(60,25)">
  <title>Right Pin</title>
  <line x1="15" x2="25" y1="15" y2="15" fill="none" stroke="#2d3142" stroke-width=".75"/>
  <text x="17.5" y="13" fill="#2d3142" font-family="Nunito" font-size="6px" font-weight="500" direction="" flipped="">38</text>
  <text x="12.5" y="17" fill="#2d3142" font-family="Nunito" font-size="6px" font-weight="500" text-anchor="end" direction="" flipped="">GND</text>
  
 </g>
 <g transform="translate(60,35)">
  <title>Right Pin</title>
  <line x1="15" x2="25" y1="15" y2="15" fill="none" stroke="#2d3142" stroke-width=".75"/>
  <text x="17.5" y="13" fill="#2d3142" font-family="Nunito" font-size="6px" font-weight="500" direction="" flipped="">37</text>
  <text x="12.5" y="17" fill="#2d3142" font-family="Nunito" font-size="6px" font-weight="500" text-anchor="end" direction="" flipped="">3V3_EN</text>
  
 </g>
 <g transform="translate(60,45)">
  <title>Right Pin</title>
  <line x1="15" x2="25" y1="15" y2="15" fill="none" stroke="#2d3142" stroke-width=".75"/>
  <text x="17.5" y="13" fill="#2d3142" font-family="Nunito" font-size="6px" font-weight="500" direction="" flipped="">36</text>
  <text x="12.5" y="17" fill="#2d3142" font-family="Nunito" font-size="6px" font-weight="500" text-anchor="end" direction="" flipped="">3V3_OUT</text>
  
 </g>
 <g transform="translate(60,145)">
  <title>Right Pin</title>
  <line x1="15" x2="25" y1="15" y2="15" fill="none" stroke="#2d3142" stroke-width=".75"/>
  <text x="17.5" y="13" fill="#2d3142" font-family="Nunito" font-size="6px" font-weight="500" direction="" flipped="">26</text>
  <text x="12.5" y="17" fill="#2d3142" font-family="Nunito" font-size="6px" font-weight="500" text-anchor="end" direction="" flipped="">GP20</text>
  
 </g>
 <g transform="translate(60,185)">
  <title>Right Pin</title>
  <line x1="15" x2="25" y1="15" y2="15" fill="none" stroke="#2d3142" stroke-width=".75"/>
  <text x="17.5" y="13" fill="#2d3142" font-family="Nunito" font-size="6px" font-weight="500" direction="" flipped="">22</text>
  <text x="12.5" y="17" fill="#2d3142" font-family="Nunito" font-size="6px" font-weight="500" text-anchor="end" direction="" flipped="">GP17</text>
  
 </g>
 <g transform="translate(60,95)">
  <title>Right Pin</title>
  <line x1="15" x2="25" y1="15" y2="15" fill="none" stroke="#2d3142" stroke-width=".75"/>
  <text x="17.5" y="13" fill="#2d3142" font-family="Nunito" font-size="6px" font-weight="500" direction="" flipped="">31</text>
  <text x="12.5" y="17" fill="#2d3142" font-family="Nunito" font-size="6px" font-weight="500" text-anchor="end" direction="" flipped="">GP26</text>
  
 </g>
 <g transform="translate(60,115)">
  <title>Right Pin</title>
  <line x1="15" x2="25" y1="15" y2="15" fill="none" stroke="#2d3142" stroke-width=".75"/>
  <text x="17.5" y="13" fill="#2d3142" font-family="Nunito" font-size="6px" font-weight="500" direction="" flipped="">29</text>
  <text x="12.5" y="17" fill="#2d3142" font-family="Nunito" font-size="6px" font-weight="500" text-anchor="end" direction="" flipped="">GP22</text>
  
 </g>
 <g transform="translate(60,125)">
  <title>Right Pin</title>
  <line x1="15" x2="25" y1="15" y2="15" fill="none" stroke="#2d3142" stroke-width=".75"/>
  <text x="17.5" y="13" fill="#2d3142" font-family="Nunito" font-size="6px" font-weight="500" direction="" flipped="">28</text>
  <text x="12.5" y="17" fill="#2d3142" font-family="Nunito" font-size="6px" font-weight="500" text-anchor="end" direction="" flipped="">GND</text>
  
 </g>
 <g transform="translate(60,85)">
  <title>Right Pin</title>
  <line x1="15" x2="25" y1="15" y2="15" fill="none" stroke="#2d3142" stroke-width=".75"/>
  <text x="17.5" y="13" fill="#2d3142" font-family="Nunito" font-size="6px" font-weight="500" direction="" flipped="">32</text>
  <text x="12.5" y="17" fill="#2d3142" font-family="Nunito" font-size="6px" font-weight="500" text-anchor="end" direction="" flipped="">GP27</text>
  
 </g>
 <g transform="translate(60,195)">
  <title>Right Pin</title>
  <line x1="15" x2="25" y1="15" y2="15" fill="none" stroke="#2d3142" stroke-width=".75"/>
  <text x="17.5" y="13" fill="#2d3142" font-family="Nunito" font-size="6px" font-weight="500" direction="" flipped="">21</text>
  <text x="12.5" y="17" fill="#2d3142" font-family="Nunito" font-size="6px" font-weight="500" text-anchor="end" direction="" flipped="">GP16</text>
  
 </g>
 <g transform="translate(60,105)">
  <title>Right Pin</title>
  <line x1="15" x2="25" y1="15" y2="15" fill="none" stroke="#2d3142" stroke-width=".75"/>
  <text x="17.5" y="13" fill="#2d3142" font-family="Nunito" font-size="6px" font-weight="500" direction="" flipped="">30</text>
  <text x="12.5" y="17" fill="#2d3142" font-family="Nunito" font-size="6px" font-weight="500" text-anchor="end" direction="" flipped="">RUN</text>
  
 </g>
 <g transform="translate(60,75)">
  <title>Right Pin</title>
  <line x1="15" x2="25" y1="15" y2="15" fill="none" stroke="#2d3142" stroke-width=".75"/>
  <text x="17.5" y="13" fill="#2d3142" font-family="Nunito" font-size="6px" font-weight="500" direction="" flipped="">33</text>
  <text x="12.5" y="17" fill="#2d3142" font-family="Nunito" font-size="6px" font-weight="500" text-anchor="end" direction="" flipped="">GND</text>
  
 </g>
 <g transform="translate(60,175)">
  <title>Right Pin</title>
  <line x1="15" x2="25" y1="15" y2="15" fill="none" stroke="#2d3142" stroke-width=".75"/>
  <text x="17.5" y="13" fill="#2d3142" font-family="Nunito" font-size="6px" font-weight="500" direction="" flipped="">23</text>
  <text x="12.5" y="17" fill="#2d3142" font-family="Nunito" font-size="6px" font-weight="500" text-anchor="end" direction="" flipped="">GND</text>
  
 </g>
 <g transform="translate(60,165)">
  <title>Right Pin</title>
  <line x1="15" x2="25" y1="15" y2="15" fill="none" stroke="#2d3142" stroke-width=".75"/>
  <text x="17.5" y="13" fill="#2d3142" font-family="Nunito" font-size="6px" font-weight="500" direction="" flipped="">24</text>
  <text x="12.5" y="17" fill="#2d3142" font-family="Nunito" font-size="6px" font-weight="500" text-anchor="end" direction="" flipped="">GP18</text>
  
 </g>
 <g transform="translate(60,135)">
  <title>Right Pin</title>
  <line x1="15" x2="25" y1="15" y2="15" fill="none" stroke="#2d3142" stroke-width=".75"/>
  <text x="17.5" y="13" fill="#2d3142" font-family="Nunito" font-size="6px" font-weight="500" direction="" flipped="">27</text>
  <text x="12.5" y="17" fill="#2d3142" font-family="Nunito" font-size="6px" font-weight="500" text-anchor="end" direction="" flipped="">GP21</text>
  
 </g>
 <g transform="translate(-10,135)">
  <title>Left Pin</title>
  <line x1="25" x2="15" y1="15" y2="15" fill="none" stroke="#2d3142" stroke-width=".75"/>
  <text x="22.5" y="13" fill="#2d3142" font-family="Nunito" font-size="6px" font-weight="500" text-anchor="end" direction="" flipped="">14</text>
  <text x="27.5" y="17" fill="#2d3142" font-family="Nunito" font-size="6px" font-weight="500" direction="" flipped="">GP10</text>
  
 </g>
 <g transform="translate(-10 195)">
  <title>Left Pin</title>
  <line x1="25" x2="15" y1="15" y2="15" fill="none" stroke="#2d3142" stroke-width=".75"/>
  <text x="22.5" y="13" fill="#2d3142" font-family="Nunito" font-size="6px" font-weight="500" text-anchor="end" direction="" flipped="">20</text>
  <text x="27.5" y="17" fill="#2d3142" font-family="Nunito" font-size="6px" font-weight="500" direction="" flipped="">GP15</text>
  
 </g>
 <g transform="translate(-10 74.988)">
  <title>Left Pin</title>
  <line x1="25" x2="15" y1="15" y2="15" fill="none" stroke="#2d3142" stroke-width=".75"/>
  <text x="22.5" y="13" fill="#2d3142" font-family="Nunito" font-size="6px" font-weight="500" text-anchor="end" direction="" flipped="">8</text>
  <text x="27.5" y="17" fill="#2d3142" font-family="Nunito" font-size="6px" font-weight="500" direction="" flipped="">GND</text>
  
 </g>
 <g transform="translate(-10 164.93)">
  <title>Left Pin</title>
  <line x1="25" x2="15" y1="15" y2="15" fill="none" stroke="#2d3142" stroke-width=".75"/>
  <text x="22.5" y="13" fill="#2d3142" font-family="Nunito" font-size="6px" font-weight="500" text-anchor="end" direction="" flipped="">17</text>
  <text x="27.5" y="17" fill="#2d3142" font-family="Nunito" font-size="6px" font-weight="500" direction="" flipped="">GP13</text>
  
 </g>
 <g transform="translate(-10 54.949)">
  <title>Left Pin</title>
  <line x1="25" x2="15" y1="15" y2="15" fill="none" stroke="#2d3142" stroke-width=".75"/>
  <text x="22.5" y="13" fill="#2d3142" font-family="Nunito" font-size="6px" font-weight="500" text-anchor="end" direction="" flipped="">6</text>
  <text x="27.5" y="17" fill="#2d3142" font-family="Nunito" font-size="6px" font-weight="500" direction="" flipped="">GP4</text>
  
 </g>
 <g transform="translate(-10,185)">
  <title>Left Pin</title>
  <line x1="25" x2="15" y1="15" y2="15" fill="none" stroke="#2d3142" stroke-width=".75"/>
  <text x="22.5" y="13" fill="#2d3142" font-family="Nunito" font-size="6px" font-weight="500" text-anchor="end" direction="" flipped="">19</text>
  <text x="27.5" y="17" fill="#2d3142" font-family="Nunito" font-size="6px" font-weight="500" direction="" flipped="">GP14</text>
  
 </g>
 <g transform="translate(-10,35)">
  <title>Left Pin</title>
  <line x1="25" x2="15" y1="15" y2="15" fill="none" stroke="#2d3142" stroke-width=".75"/>
  <text x="22.5" y="13" fill="#2d3142" font-family="Nunito" font-size="6px" font-weight="500" text-anchor="end" direction="" flipped="">4</text>
  <text x="27.5" y="17" fill="#2d3142" font-family="Nunito" font-size="6px" font-weight="500" direction="" flipped="">GP2</text>
  
 </g>
 <g transform="translate(-10 114.99)">
  <title>Left Pin</title>
  <line x1="25" x2="15" y1="15" y2="15" fill="none" stroke="#2d3142" stroke-width=".75"/>
  <text x="22.5" y="13" fill="#2d3142" font-family="Nunito" font-size="6px" font-weight="500" text-anchor="end" direction="" flipped="">12</text>
  <text x="27.5" y="17" fill="#2d3142" font-family="Nunito" font-size="6px" font-weight="500" direction="" flipped="">GP9</text>
  
 </g>
 <g transform="translate(-10 145.02)">
  <title>Left Pin</title>
  <line x1="25" x2="15" y1="15" y2="15" fill="none" stroke="#2d3142" stroke-width=".75"/>
  <text x="22.5" y="13" fill="#2d3142" font-family="Nunito" font-size="6px" font-weight="500" text-anchor="end" direction="" flipped="">15</text>
  <text x="27.5" y="17" fill="#2d3142" font-family="Nunito" font-size="6px" font-weight="500" direction="" flipped="">GP11</text>
  
 </g>
 <g transform="translate(-10,175)">
  <title>Left Pin</title>
  <line x1="25" x2="15" y1="15" y2="15" fill="none" stroke="#2d3142" stroke-width=".75"/>
  <text x="22.5" y="13" fill="#2d3142" font-family="Nunito" font-size="6px" font-weight="500" text-anchor="end" direction="" flipped="">18</text>
  <text x="27.5" y="17" fill="#2d3142" font-family="Nunito" font-size="6px" font-weight="500" direction="" flipped="">GND</text>
  
 </g>
 <g transform="translate(-10 125.02)">
  <title>Left Pin</title>
  <line x1="25" x2="15" y1="15" y2="15" fill="none" stroke="#2d3142" stroke-width=".75"/>
  <text x="22.5" y="13" fill="#2d3142" font-family="Nunito" font-size="6px" font-weight="500" text-anchor="end" direction="" flipped="">13</text>
  <text x="27.5" y="17" fill="#2d3142" font-family="Nunito" font-size="6px" font-weight="500" direction="" flipped="">GND</text>
  
 </g>
 <g transform="translate(-10,25)">
  <title>Left Pin</title>
  <line x1="25" x2="15" y1="15" y2="15" fill="none" stroke="#2d3142" stroke-width=".75"/>
  <text x="22.5" y="13" fill="#2d3142" font-family="Nunito" font-size="6px" font-weight="500" text-anchor="end" direction="" flipped="">3</text>
  <text x="27.5" y="17" fill="#2d3142" font-family="Nunito" font-size="6px" font-weight="500" direction="" flipped="">GND</text>
  
 </g>
 <g transform="translate(-10,155)">
  <title>Left Pin</title>
  <line x1="25" x2="15" y1="15" y2="15" fill="none" stroke="#2d3142" stroke-width=".75"/>
  <text x="22.5" y="13" fill="#2d3142" font-family="Nunito" font-size="6px" font-weight="500" text-anchor="end" direction="" flipped="">16</text>
  <text x="27.5" y="17" fill="#2d3142" font-family="Nunito" font-size="6px" font-weight="500" direction="" flipped="">GP12</text>
  
 </g>
 <g transform="translate(-10 15.027)">
  <title>Left Pin</title>
  <line x1="25" x2="15" y1="15" y2="15" fill="none" stroke="#2d3142" stroke-width=".75"/>
  <text x="22.5" y="13" fill="#2d3142" font-family="Nunito" font-size="6px" font-weight="500" text-anchor="end" direction="" flipped="">2</text>
  <text x="27.5" y="17" fill="#2d3142" font-family="Nunito" font-size="6px" font-weight="500" direction="" flipped="">GP1</text>
  
 </g>
 <g transform="translate(-10,85)">
  <title>Left Pin</title>
  <line x1="25" x2="15" y1="15" y2="15" fill="none" stroke="#2d3142" stroke-width=".75"/>
  <text x="22.5" y="13" fill="#2d3142" font-family="Nunito" font-size="6px" font-weight="500" text-anchor="end" direction="" flipped="">9</text>
  <text x="27.5" y="17" fill="#2d3142" font-family="Nunito" font-size="6px" font-weight="500" direction="" flipped="">GP6</text>
  
 </g>
 <g transform="translate(-10,95)">
  <title>Left Pin</title>
  <line x1="25" x2="15" y1="15" y2="15" fill="none" stroke="#2d3142" stroke-width=".75"/>
  <text x="22.5" y="13" fill="#2d3142" font-family="Nunito" font-size="6px" font-weight="500" text-anchor="end" direction="" flipped="">10</text>
  <text x="27.5" y="17" fill="#2d3142" font-family="Nunito" font-size="6px" font-weight="500" direction="" flipped="">GP7</text>
  
 </g>
 <text x="44.847515" y="232.7" fill="#2d3142" font-family="Nunito" font-size="7px" font-weight="500" stroke-linecap="square" stroke-linejoin="round" text-align="center" text-anchor="middle" xml:space="preserve" direction="" flipped="">Raspberry Pi Pico</text>
<text class="component-reference component-text moveable-text locked" font-size="4.5px" x="90" y="116.5" direction="" flipped="" style=""/><text class="component-value component-text moveable-text locked" font-size="4.5px" x="90" y="121.5" direction="" flipped="" style=""/></g><g data-source-id="f33a16660258e24de600a1d2a138e5e4" data-source-name="Pushbutton Switch" data-variant-group="pushbutton" data-width="40" data-height="20" class="component" id="part_15" transform="translate(2610,2110) scale(1,1) rotate(90,20,10)"><rect class="helper-box" x="3.5" y="5.887461185455322" width="33" height="10.734102249145508" fill="none"/>
 <g fill="#2d3142">
  <path d="m13.75 14.125c0.0349 4.8e-4 0.0694 0.0024 0.10424 0.0043 0.07228 0.0039 0.02242 0.0032 0.0067 4.2e-4 0.05532 0.0098 0.1099 0.02214 0.16361 0.03867 0.0099 3e-3 0.11165 0.04215 0.03435 0.0093 0.02017 0.0086 0.04016 0.01794 0.05978 0.02766 0.05907 0.02925 0.11388 0.06386 0.16843 0.10061-0.06587-0.04437-0.0063-0.0055 0.0099 0.0092 0.02004 0.0183 0.04066 0.0358 0.06013 0.05477 0.03883 0.03784 0.07529 0.07822 0.10888 0.12078-0.04783-0.06059-0.01151-0.01473-0.0034-9.3e-4 0.01657 0.02821 0.03534 0.05496 0.05141 0.08354 0.01071 0.01905 0.02096 0.03844 0.03066 0.05803 0.0098 0.01968 0.01897 0.03961 0.02766 0.05978-0.01364-0.03396-0.01582-0.03828-0.0065-0.01298 0.01776 0.05308 0.03361 0.10619 0.04503 0.16104 0.0035 0.01659 0.01505 0.08982 0.0066 0.02241 0.0036 0.02854 0.0052 0.05739 0.0064 0.08611 0.0024 0.058 8e-4 0.11594-0.0047 0.17372-0.0061 0.06324 0.01948-0.07988-0.0048 0.023-0.0077 0.03287-0.01415 0.06561-0.02323 0.09819-9e-3 0.03214-0.01963 0.06361-0.03078 0.09504 0.0053-0.01488 0.0307-0.0618-0.0014 0.0015-0.02482 0.04894-0.04904 0.09748-0.07844 0.14389 3e-4 -4.7e-4 -0.05925 0.08846-0.02541 0.04033 0.03337-0.04745-0.03042 0.03578-0.03072 0.03612-0.04317 0.04915-0.09036 0.09326-0.13969 0.13612-0.05525 0.04801-0.0098 0.0069 0.0025-0.0014-0.02715 0.01828-0.05395 0.03671-0.08207 0.05352-0.04695 0.02805-0.09581 0.05334-0.14614 0.07475 0.07078-0.0301-0.0761 0.02162-0.09879 0.02732-0.02182 0.0055-0.04391 0.0095-0.06579 0.01463-0.04256 0.0068-0.04452 0.0079-0.0059 0.0031-0.01712 2e-3 -0.03428 0.0035-0.05149 0.0045-0.05217 0.0036-0.1045 0.0041-0.15672 0.0012-0.0085-4.7e-4 -0.11751-0.01694-0.04124-0.0028-0.02221-0.0041-0.04438-8e-3 -0.06643-0.01289-0.0545-0.01212-0.10759-0.02849-0.16016-0.04712 0.07812 0.02768-0.02094-0.01054-0.03115-0.01559-0.02939-0.01455-0.05821-0.03027-0.08636-0.04709-0.02214-0.01323-0.04506-0.03417-0.06864-0.04425-0.05123-0.0219 0.06058 0.05599-0.01092-0.0078-0.04067-0.03632-0.08079-0.07184-0.1179-0.11195-0.01833-0.01981-0.03444-0.04229-0.05321-0.06154-0.04112-0.04216 0.0434 0.07394-0.0069-0.01171-0.03336-0.05685-0.06638-0.11228-0.09629-0.17125-0.0068-0.01341-0.02423-0.06587-0.0014-0.0015-0.01115-0.03144-0.02179-0.0629-0.03078-0.09504-6e-3 -0.02154-0.01146-0.04331-0.01634-0.06513 9.9e-4 0.0044-0.01898-0.104-0.01145-0.05269 0.0076 0.05146-0.0045-0.05967-0.0042-0.05499-0.0016-0.02907-0.0021-0.05813-0.0017-0.08723 4e-4 -0.02901 0.0024-0.05779 4e-3 -0.08674 0.0046-0.08333-0.01226 0.03326 0.0064-0.04012 0.01663-0.0653 0.03144-0.12959 0.05401-0.19323-0.0243 0.06852-4.2e-4 8.6e-4 0.0085-0.01631 0.01767-0.03405 0.03449-0.06821 0.0542-0.1012 0.01116-0.01867 0.02399-0.03647 0.03498-0.05521 0.0258-0.03616 0.02466-0.03585-0.0034 9.3e-4 0.01346-0.01703 0.02736-0.0337 0.04169-0.05001 0.03578-0.04074 0.07422-0.07917 0.11496-0.11495 0.0113-0.0099 0.09666-0.06989 0.02222-0.01975 0.02718-0.01831 0.05392-0.03669 0.08207-0.05352 0.02815-0.01682 0.05697-0.03254 0.08636-0.04709 0.0159-0.0079 0.10513-0.04183 0.03115-0.01559 0.06387-0.02265 0.12772-0.03732 0.19322-0.05401 0.01147-0.0029 0.06989-0.01117 0.0059-0.0031 0.0459-0.0058 0.09228-0.0069 0.13847-0.0076 0.20249-0.0028 0.375-0.17051 0.375-0.375 0-0.20099-0.17182-0.37779-0.375-0.375-0.69223 0.0095-1.2869 0.43762-1.5299 1.0817-0.23176 0.61414-0.02903 1.3632 0.4776 1.7794 0.5277 0.43346 1.2824 0.51966 1.8778 0.16388 0.59509-0.35559 0.88913-1.0414 0.7674-1.7179-0.13638-0.75788-0.83818-1.2967-1.5929-1.3071-0.20253-0.0028-0.375 0.17443-0.375 0.375 0 0.20545 0.17187 0.37221 0.375 0.375z"/>
  <path d="m20.375 11.25v-5c0-0.48328-0.75-0.48349-0.75 0v5c0 0.48328 0.75 0.48349 0.75 0z"/>
  <path d="m27.5 10.858h-15c-0.48328 0-0.48349 0.75 0 0.75h15c0.48328 0 0.48349-0.75 0-0.75z"/>
 </g>
 <line x1="12.5" x2="5" y1="15" y2="15" fill="none" stroke="#2d3142" stroke-miterlimit="10" stroke-width=".75"/>
 <path d="m26.25 13.375c-0.69223 0.0095-1.2869 0.43762-1.5299 1.0817-0.23176 0.61414-0.02903 1.3632 0.4776 1.7794 0.5277 0.43346 1.2824 0.51966 1.8778 0.16388 0.59509-0.35559 0.88913-1.0414 0.7674-1.7179-0.13638-0.75788-0.83818-1.2967-1.5929-1.3071-0.20253-0.0028-0.375 0.17443-0.375 0.375 0 0.20545 0.17187 0.37221 0.375 0.375 0.0349 4.8e-4 0.0694 0.0024 0.10424 0.0043 0.07228 4e-3 0.02242 0.0032 0.0067 4.2e-4 0.05532 0.0098 0.1099 0.02214 0.16361 0.03867 0.0099 3e-3 0.11165 0.04215 0.03435 0.0093 0.02017 0.0086 0.04016 0.01794 0.05978 0.02766 0.05907 0.02925 0.11388 0.06386 0.16843 0.10061-0.06587-0.04437-0.0063-0.0055 0.0099 0.0092 0.02004 0.0183 0.04066 0.0358 0.06013 0.05477 0.03883 0.03784 0.07529 0.07822 0.10888 0.12078-0.04783-0.06059-0.01151-0.01473-0.0034-9.3e-4 0.01657 0.02821 0.03534 0.05496 0.05141 0.08354 0.01071 0.01905 0.02096 0.03844 0.03066 0.05803 0.0098 0.01968 0.01897 0.03961 0.02766 0.05978-0.01364-0.03396-0.01582-0.03828-0.0065-0.01298 0.01776 0.05308 0.03361 0.10619 0.04503 0.16104 0.0035 0.01659 0.01505 0.08982 0.0066 0.02241 0.0036 0.02854 0.0052 0.05739 0.0064 0.08611 0.0024 0.058 8e-4 0.11594-0.0047 0.17372-0.0061 0.06324 0.01948-0.07988-0.0048 0.023-0.0078 0.03287-0.01415 0.06561-0.02323 0.09819-0.0089 0.03214-0.01963 0.06361-0.03078 0.09504 0.0053-0.01488 0.0307-0.0618-0.0014 0.0015-0.02482 0.04894-0.04904 0.09748-0.07844 0.14389 3e-4 -4.7e-4 -0.05925 0.08846-0.02541 0.04033 0.03337-0.04745-0.03042 0.03578-0.03072 0.03612-0.04317 0.04915-0.09036 0.09326-0.13969 0.13612-0.05525 0.04801-0.0098 0.0069 0.0025-0.0014-0.02715 0.01828-0.05395 0.03671-0.08207 0.05352-0.04695 0.02805-0.09581 0.05334-0.14614 0.07475 0.07078-0.0301-0.0761 0.02162-0.09879 0.02732-0.02182 0.0055-0.04391 0.0095-0.06579 0.01463-0.04256 0.0068-0.04452 0.0078-0.0059 0.0031-0.01712 2e-3 -0.03428 0.0035-0.05149 0.0045-0.05217 0.0036-0.1045 0.0041-0.15672 0.0012-0.0085-4.7e-4 -0.11751-0.01694-0.04124-0.0028-0.02221-0.0041-0.04438-8e-3 -0.06643-0.01289-0.0545-0.01212-0.10759-0.02849-0.16016-0.04712 0.07812 0.02768-0.02094-0.01054-0.03115-0.01559-0.02939-0.01455-0.05821-0.03027-0.08636-0.04709-0.02214-0.01323-0.04506-0.03417-0.06864-0.04425-0.05123-0.0219 0.06058 0.05599-0.01092-0.0079-0.04067-0.03632-0.08079-0.07184-0.1179-0.11195-0.01833-0.01981-0.03444-0.04229-0.05321-0.06154-0.04112-0.04216 0.0434 0.07394-0.0069-0.01171-0.03336-0.05685-0.06638-0.11228-0.09629-0.17125-0.0068-0.01341-0.02423-0.06587-0.0014-0.0015-0.01115-0.03144-0.02179-0.0629-0.03078-0.09504-6e-3 -0.02154-0.01146-0.04331-0.01634-0.06513 9.9e-4 0.0044-0.01898-0.104-0.01145-0.05269 0.0075 0.05146-0.0045-0.05967-0.0042-0.05499-0.0016-0.02907-0.0021-0.05813-0.0017-0.08723 4e-4 -0.02901 0.0024-0.05779 4e-3 -0.08674 0.0046-0.08333-0.01226 0.03326 0.0064-0.04012 0.01663-0.0653 0.03144-0.12959 0.05401-0.19323-0.0243 0.06852-4.2e-4 8.6e-4 0.0085-0.01631 0.01767-0.03405 0.03449-0.06821 0.0542-0.1012 0.01116-0.01867 0.02399-0.03647 0.03498-0.05521 0.0258-0.03616 0.02466-0.03585-0.0034 9.3e-4 0.01346-0.01703 0.02736-0.0337 0.04169-0.05001 0.03578-0.04074 0.07422-0.07917 0.11496-0.11495 0.0113-0.0099 0.09666-0.06989 0.02222-0.01975 0.02718-0.01831 0.05392-0.03669 0.08207-0.05352 0.02815-0.01682 0.05697-0.03254 0.08636-0.04709 0.0159-0.0079 0.10513-0.04183 0.03115-0.01559 0.06387-0.02265 0.12772-0.03732 0.19322-0.05401 0.01147-0.0029 0.06989-0.01117 0.0059-0.0031 0.0459-0.0058 0.09228-0.0069 0.13847-0.0076 0.20249-0.0028 0.375-0.17051 0.375-0.375 0-0.20099-0.17182-0.37779-0.375-0.375z" fill="#2d3142"/>
 <line x1="27.5" x2="35" y1="15" y2="15" fill="none" stroke="#2d3142" stroke-miterlimit="10" stroke-width=".75"/>
 
 
<text class="component-reference component-text moveable-text locked" font-size="4.5px" x="20" y="-5" text-anchor="middle" direction="" flipped="" style="" transform=" rotate(-90 20 -6.562499761581421)">SW1</text><text class="component-value component-text moveable-text locked" font-size="4.5px" x="20" y="0" text-anchor="middle" direction="" flipped="" style="" transform=" rotate(-90 0 0)"/></g><g data-source-id="f33a16660258e24de600a1d2a138e5e4" data-source-name="Pushbutton Switch" data-variant-group="pushbutton" data-width="40" data-height="20" class="component" id="part_16" transform="translate(2610,2160) scale(1,1) rotate(90,20,10)"><rect class="helper-box" x="3.5" y="5.887461185455322" width="33" height="10.734102249145508" fill="none"/>
 <g fill="#2d3142">
  <path d="m13.75 14.125c0.0349 4.8e-4 0.0694 0.0024 0.10424 0.0043 0.07228 0.0039 0.02242 0.0032 0.0067 4.2e-4 0.05532 0.0098 0.1099 0.02214 0.16361 0.03867 0.0099 3e-3 0.11165 0.04215 0.03435 0.0093 0.02017 0.0086 0.04016 0.01794 0.05978 0.02766 0.05907 0.02925 0.11388 0.06386 0.16843 0.10061-0.06587-0.04437-0.0063-0.0055 0.0099 0.0092 0.02004 0.0183 0.04066 0.0358 0.06013 0.05477 0.03883 0.03784 0.07529 0.07822 0.10888 0.12078-0.04783-0.06059-0.01151-0.01473-0.0034-9.3e-4 0.01657 0.02821 0.03534 0.05496 0.05141 0.08354 0.01071 0.01905 0.02096 0.03844 0.03066 0.05803 0.0098 0.01968 0.01897 0.03961 0.02766 0.05978-0.01364-0.03396-0.01582-0.03828-0.0065-0.01298 0.01776 0.05308 0.03361 0.10619 0.04503 0.16104 0.0035 0.01659 0.01505 0.08982 0.0066 0.02241 0.0036 0.02854 0.0052 0.05739 0.0064 0.08611 0.0024 0.058 8e-4 0.11594-0.0047 0.17372-0.0061 0.06324 0.01948-0.07988-0.0048 0.023-0.0077 0.03287-0.01415 0.06561-0.02323 0.09819-9e-3 0.03214-0.01963 0.06361-0.03078 0.09504 0.0053-0.01488 0.0307-0.0618-0.0014 0.0015-0.02482 0.04894-0.04904 0.09748-0.07844 0.14389 3e-4 -4.7e-4 -0.05925 0.08846-0.02541 0.04033 0.03337-0.04745-0.03042 0.03578-0.03072 0.03612-0.04317 0.04915-0.09036 0.09326-0.13969 0.13612-0.05525 0.04801-0.0098 0.0069 0.0025-0.0014-0.02715 0.01828-0.05395 0.03671-0.08207 0.05352-0.04695 0.02805-0.09581 0.05334-0.14614 0.07475 0.07078-0.0301-0.0761 0.02162-0.09879 0.02732-0.02182 0.0055-0.04391 0.0095-0.06579 0.01463-0.04256 0.0068-0.04452 0.0079-0.0059 0.0031-0.01712 2e-3 -0.03428 0.0035-0.05149 0.0045-0.05217 0.0036-0.1045 0.0041-0.15672 0.0012-0.0085-4.7e-4 -0.11751-0.01694-0.04124-0.0028-0.02221-0.0041-0.04438-8e-3 -0.06643-0.01289-0.0545-0.01212-0.10759-0.02849-0.16016-0.04712 0.07812 0.02768-0.02094-0.01054-0.03115-0.01559-0.02939-0.01455-0.05821-0.03027-0.08636-0.04709-0.02214-0.01323-0.04506-0.03417-0.06864-0.04425-0.05123-0.0219 0.06058 0.05599-0.01092-0.0078-0.04067-0.03632-0.08079-0.07184-0.1179-0.11195-0.01833-0.01981-0.03444-0.04229-0.05321-0.06154-0.04112-0.04216 0.0434 0.07394-0.0069-0.01171-0.03336-0.05685-0.06638-0.11228-0.09629-0.17125-0.0068-0.01341-0.02423-0.06587-0.0014-0.0015-0.01115-0.03144-0.02179-0.0629-0.03078-0.09504-6e-3 -0.02154-0.01146-0.04331-0.01634-0.06513 9.9e-4 0.0044-0.01898-0.104-0.01145-0.05269 0.0076 0.05146-0.0045-0.05967-0.0042-0.05499-0.0016-0.02907-0.0021-0.05813-0.0017-0.08723 4e-4 -0.02901 0.0024-0.05779 4e-3 -0.08674 0.0046-0.08333-0.01226 0.03326 0.0064-0.04012 0.01663-0.0653 0.03144-0.12959 0.05401-0.19323-0.0243 0.06852-4.2e-4 8.6e-4 0.0085-0.01631 0.01767-0.03405 0.03449-0.06821 0.0542-0.1012 0.01116-0.01867 0.02399-0.03647 0.03498-0.05521 0.0258-0.03616 0.02466-0.03585-0.0034 9.3e-4 0.01346-0.01703 0.02736-0.0337 0.04169-0.05001 0.03578-0.04074 0.07422-0.07917 0.11496-0.11495 0.0113-0.0099 0.09666-0.06989 0.02222-0.01975 0.02718-0.01831 0.05392-0.03669 0.08207-0.05352 0.02815-0.01682 0.05697-0.03254 0.08636-0.04709 0.0159-0.0079 0.10513-0.04183 0.03115-0.01559 0.06387-0.02265 0.12772-0.03732 0.19322-0.05401 0.01147-0.0029 0.06989-0.01117 0.0059-0.0031 0.0459-0.0058 0.09228-0.0069 0.13847-0.0076 0.20249-0.0028 0.375-0.17051 0.375-0.375 0-0.20099-0.17182-0.37779-0.375-0.375-0.69223 0.0095-1.2869 0.43762-1.5299 1.0817-0.23176 0.61414-0.02903 1.3632 0.4776 1.7794 0.5277 0.43346 1.2824 0.51966 1.8778 0.16388 0.59509-0.35559 0.88913-1.0414 0.7674-1.7179-0.13638-0.75788-0.83818-1.2967-1.5929-1.3071-0.20253-0.0028-0.375 0.17443-0.375 0.375 0 0.20545 0.17187 0.37221 0.375 0.375z"/>
  <path d="m20.375 11.25v-5c0-0.48328-0.75-0.48349-0.75 0v5c0 0.48328 0.75 0.48349 0.75 0z"/>
  <path d="m27.5 10.858h-15c-0.48328 0-0.48349 0.75 0 0.75h15c0.48328 0 0.48349-0.75 0-0.75z"/>
 </g>
 <line x1="12.5" x2="5" y1="15" y2="15" fill="none" stroke="#2d3142" stroke-miterlimit="10" stroke-width=".75"/>
 <path d="m26.25 13.375c-0.69223 0.0095-1.2869 0.43762-1.5299 1.0817-0.23176 0.61414-0.02903 1.3632 0.4776 1.7794 0.5277 0.43346 1.2824 0.51966 1.8778 0.16388 0.59509-0.35559 0.88913-1.0414 0.7674-1.7179-0.13638-0.75788-0.83818-1.2967-1.5929-1.3071-0.20253-0.0028-0.375 0.17443-0.375 0.375 0 0.20545 0.17187 0.37221 0.375 0.375 0.0349 4.8e-4 0.0694 0.0024 0.10424 0.0043 0.07228 4e-3 0.02242 0.0032 0.0067 4.2e-4 0.05532 0.0098 0.1099 0.02214 0.16361 0.03867 0.0099 3e-3 0.11165 0.04215 0.03435 0.0093 0.02017 0.0086 0.04016 0.01794 0.05978 0.02766 0.05907 0.02925 0.11388 0.06386 0.16843 0.10061-0.06587-0.04437-0.0063-0.0055 0.0099 0.0092 0.02004 0.0183 0.04066 0.0358 0.06013 0.05477 0.03883 0.03784 0.07529 0.07822 0.10888 0.12078-0.04783-0.06059-0.01151-0.01473-0.0034-9.3e-4 0.01657 0.02821 0.03534 0.05496 0.05141 0.08354 0.01071 0.01905 0.02096 0.03844 0.03066 0.05803 0.0098 0.01968 0.01897 0.03961 0.02766 0.05978-0.01364-0.03396-0.01582-0.03828-0.0065-0.01298 0.01776 0.05308 0.03361 0.10619 0.04503 0.16104 0.0035 0.01659 0.01505 0.08982 0.0066 0.02241 0.0036 0.02854 0.0052 0.05739 0.0064 0.08611 0.0024 0.058 8e-4 0.11594-0.0047 0.17372-0.0061 0.06324 0.01948-0.07988-0.0048 0.023-0.0078 0.03287-0.01415 0.06561-0.02323 0.09819-0.0089 0.03214-0.01963 0.06361-0.03078 0.09504 0.0053-0.01488 0.0307-0.0618-0.0014 0.0015-0.02482 0.04894-0.04904 0.09748-0.07844 0.14389 3e-4 -4.7e-4 -0.05925 0.08846-0.02541 0.04033 0.03337-0.04745-0.03042 0.03578-0.03072 0.03612-0.04317 0.04915-0.09036 0.09326-0.13969 0.13612-0.05525 0.04801-0.0098 0.0069 0.0025-0.0014-0.02715 0.01828-0.05395 0.03671-0.08207 0.05352-0.04695 0.02805-0.09581 0.05334-0.14614 0.07475 0.07078-0.0301-0.0761 0.02162-0.09879 0.02732-0.02182 0.0055-0.04391 0.0095-0.06579 0.01463-0.04256 0.0068-0.04452 0.0078-0.0059 0.0031-0.01712 2e-3 -0.03428 0.0035-0.05149 0.0045-0.05217 0.0036-0.1045 0.0041-0.15672 0.0012-0.0085-4.7e-4 -0.11751-0.01694-0.04124-0.0028-0.02221-0.0041-0.04438-8e-3 -0.06643-0.01289-0.0545-0.01212-0.10759-0.02849-0.16016-0.04712 0.07812 0.02768-0.02094-0.01054-0.03115-0.01559-0.02939-0.01455-0.05821-0.03027-0.08636-0.04709-0.02214-0.01323-0.04506-0.03417-0.06864-0.04425-0.05123-0.0219 0.06058 0.05599-0.01092-0.0079-0.04067-0.03632-0.08079-0.07184-0.1179-0.11195-0.01833-0.01981-0.03444-0.04229-0.05321-0.06154-0.04112-0.04216 0.0434 0.07394-0.0069-0.01171-0.03336-0.05685-0.06638-0.11228-0.09629-0.17125-0.0068-0.01341-0.02423-0.06587-0.0014-0.0015-0.01115-0.03144-0.02179-0.0629-0.03078-0.09504-6e-3 -0.02154-0.01146-0.04331-0.01634-0.06513 9.9e-4 0.0044-0.01898-0.104-0.01145-0.05269 0.0075 0.05146-0.0045-0.05967-0.0042-0.05499-0.0016-0.02907-0.0021-0.05813-0.0017-0.08723 4e-4 -0.02901 0.0024-0.05779 4e-3 -0.08674 0.0046-0.08333-0.01226 0.03326 0.0064-0.04012 0.01663-0.0653 0.03144-0.12959 0.05401-0.19323-0.0243 0.06852-4.2e-4 8.6e-4 0.0085-0.01631 0.01767-0.03405 0.03449-0.06821 0.0542-0.1012 0.01116-0.01867 0.02399-0.03647 0.03498-0.05521 0.0258-0.03616 0.02466-0.03585-0.0034 9.3e-4 0.01346-0.01703 0.02736-0.0337 0.04169-0.05001 0.03578-0.04074 0.07422-0.07917 0.11496-0.11495 0.0113-0.0099 0.09666-0.06989 0.02222-0.01975 0.02718-0.01831 0.05392-0.03669 0.08207-0.05352 0.02815-0.01682 0.05697-0.03254 0.08636-0.04709 0.0159-0.0079 0.10513-0.04183 0.03115-0.01559 0.06387-0.02265 0.12772-0.03732 0.19322-0.05401 0.01147-0.0029 0.06989-0.01117 0.0059-0.0031 0.0459-0.0058 0.09228-0.0069 0.13847-0.0076 0.20249-0.0028 0.375-0.17051 0.375-0.375 0-0.20099-0.17182-0.37779-0.375-0.375z" fill="#2d3142"/>
 <line x1="27.5" x2="35" y1="15" y2="15" fill="none" stroke="#2d3142" stroke-miterlimit="10" stroke-width=".75"/>
 
 
<text class="component-reference component-text moveable-text locked" font-size="4.5px" x="20" y="-5" text-anchor="middle" direction="" flipped="" style="" transform=" rotate(-90 20 -6.562499761581421)">SW2</text><text class="component-value component-text moveable-text locked" font-size="4.5px" x="20" y="0" text-anchor="middle" direction="" flipped="" style="" transform=" rotate(-90 0 0)"/></g><g data-source-id="f33a16660258e24de600a1d2a138e5e4" data-source-name="Pushbutton Switch" data-variant-group="pushbutton" data-width="40" data-height="20" class="component" id="part_17" transform="translate(2610,2210) scale(1,1) rotate(90,20,10)"><rect class="helper-box" x="3.5" y="5.887461185455322" width="33" height="10.734102249145508" fill="none"/>
 <g fill="#2d3142">
  <path d="m13.75 14.125c0.0349 4.8e-4 0.0694 0.0024 0.10424 0.0043 0.07228 0.0039 0.02242 0.0032 0.0067 4.2e-4 0.05532 0.0098 0.1099 0.02214 0.16361 0.03867 0.0099 3e-3 0.11165 0.04215 0.03435 0.0093 0.02017 0.0086 0.04016 0.01794 0.05978 0.02766 0.05907 0.02925 0.11388 0.06386 0.16843 0.10061-0.06587-0.04437-0.0063-0.0055 0.0099 0.0092 0.02004 0.0183 0.04066 0.0358 0.06013 0.05477 0.03883 0.03784 0.07529 0.07822 0.10888 0.12078-0.04783-0.06059-0.01151-0.01473-0.0034-9.3e-4 0.01657 0.02821 0.03534 0.05496 0.05141 0.08354 0.01071 0.01905 0.02096 0.03844 0.03066 0.05803 0.0098 0.01968 0.01897 0.03961 0.02766 0.05978-0.01364-0.03396-0.01582-0.03828-0.0065-0.01298 0.01776 0.05308 0.03361 0.10619 0.04503 0.16104 0.0035 0.01659 0.01505 0.08982 0.0066 0.02241 0.0036 0.02854 0.0052 0.05739 0.0064 0.08611 0.0024 0.058 8e-4 0.11594-0.0047 0.17372-0.0061 0.06324 0.01948-0.07988-0.0048 0.023-0.0077 0.03287-0.01415 0.06561-0.02323 0.09819-9e-3 0.03214-0.01963 0.06361-0.03078 0.09504 0.0053-0.01488 0.0307-0.0618-0.0014 0.0015-0.02482 0.04894-0.04904 0.09748-0.07844 0.14389 3e-4 -4.7e-4 -0.05925 0.08846-0.02541 0.04033 0.03337-0.04745-0.03042 0.03578-0.03072 0.03612-0.04317 0.04915-0.09036 0.09326-0.13969 0.13612-0.05525 0.04801-0.0098 0.0069 0.0025-0.0014-0.02715 0.01828-0.05395 0.03671-0.08207 0.05352-0.04695 0.02805-0.09581 0.05334-0.14614 0.07475 0.07078-0.0301-0.0761 0.02162-0.09879 0.02732-0.02182 0.0055-0.04391 0.0095-0.06579 0.01463-0.04256 0.0068-0.04452 0.0079-0.0059 0.0031-0.01712 2e-3 -0.03428 0.0035-0.05149 0.0045-0.05217 0.0036-0.1045 0.0041-0.15672 0.0012-0.0085-4.7e-4 -0.11751-0.01694-0.04124-0.0028-0.02221-0.0041-0.04438-8e-3 -0.06643-0.01289-0.0545-0.01212-0.10759-0.02849-0.16016-0.04712 0.07812 0.02768-0.02094-0.01054-0.03115-0.01559-0.02939-0.01455-0.05821-0.03027-0.08636-0.04709-0.02214-0.01323-0.04506-0.03417-0.06864-0.04425-0.05123-0.0219 0.06058 0.05599-0.01092-0.0078-0.04067-0.03632-0.08079-0.07184-0.1179-0.11195-0.01833-0.01981-0.03444-0.04229-0.05321-0.06154-0.04112-0.04216 0.0434 0.07394-0.0069-0.01171-0.03336-0.05685-0.06638-0.11228-0.09629-0.17125-0.0068-0.01341-0.02423-0.06587-0.0014-0.0015-0.01115-0.03144-0.02179-0.0629-0.03078-0.09504-6e-3 -0.02154-0.01146-0.04331-0.01634-0.06513 9.9e-4 0.0044-0.01898-0.104-0.01145-0.05269 0.0076 0.05146-0.0045-0.05967-0.0042-0.05499-0.0016-0.02907-0.0021-0.05813-0.0017-0.08723 4e-4 -0.02901 0.0024-0.05779 4e-3 -0.08674 0.0046-0.08333-0.01226 0.03326 0.0064-0.04012 0.01663-0.0653 0.03144-0.12959 0.05401-0.19323-0.0243 0.06852-4.2e-4 8.6e-4 0.0085-0.01631 0.01767-0.03405 0.03449-0.06821 0.0542-0.1012 0.01116-0.01867 0.02399-0.03647 0.03498-0.05521 0.0258-0.03616 0.02466-0.03585-0.0034 9.3e-4 0.01346-0.01703 0.02736-0.0337 0.04169-0.05001 0.03578-0.04074 0.07422-0.07917 0.11496-0.11495 0.0113-0.0099 0.09666-0.06989 0.02222-0.01975 0.02718-0.01831 0.05392-0.03669 0.08207-0.05352 0.02815-0.01682 0.05697-0.03254 0.08636-0.04709 0.0159-0.0079 0.10513-0.04183 0.03115-0.01559 0.06387-0.02265 0.12772-0.03732 0.19322-0.05401 0.01147-0.0029 0.06989-0.01117 0.0059-0.0031 0.0459-0.0058 0.09228-0.0069 0.13847-0.0076 0.20249-0.0028 0.375-0.17051 0.375-0.375 0-0.20099-0.17182-0.37779-0.375-0.375-0.69223 0.0095-1.2869 0.43762-1.5299 1.0817-0.23176 0.61414-0.02903 1.3632 0.4776 1.7794 0.5277 0.43346 1.2824 0.51966 1.8778 0.16388 0.59509-0.35559 0.88913-1.0414 0.7674-1.7179-0.13638-0.75788-0.83818-1.2967-1.5929-1.3071-0.20253-0.0028-0.375 0.17443-0.375 0.375 0 0.20545 0.17187 0.37221 0.375 0.375z"/>
  <path d="m20.375 11.25v-5c0-0.48328-0.75-0.48349-0.75 0v5c0 0.48328 0.75 0.48349 0.75 0z"/>
  <path d="m27.5 10.858h-15c-0.48328 0-0.48349 0.75 0 0.75h15c0.48328 0 0.48349-0.75 0-0.75z"/>
 </g>
 <line x1="12.5" x2="5" y1="15" y2="15" fill="none" stroke="#2d3142" stroke-miterlimit="10" stroke-width=".75"/>
 <path d="m26.25 13.375c-0.69223 0.0095-1.2869 0.43762-1.5299 1.0817-0.23176 0.61414-0.02903 1.3632 0.4776 1.7794 0.5277 0.43346 1.2824 0.51966 1.8778 0.16388 0.59509-0.35559 0.88913-1.0414 0.7674-1.7179-0.13638-0.75788-0.83818-1.2967-1.5929-1.3071-0.20253-0.0028-0.375 0.17443-0.375 0.375 0 0.20545 0.17187 0.37221 0.375 0.375 0.0349 4.8e-4 0.0694 0.0024 0.10424 0.0043 0.07228 4e-3 0.02242 0.0032 0.0067 4.2e-4 0.05532 0.0098 0.1099 0.02214 0.16361 0.03867 0.0099 3e-3 0.11165 0.04215 0.03435 0.0093 0.02017 0.0086 0.04016 0.01794 0.05978 0.02766 0.05907 0.02925 0.11388 0.06386 0.16843 0.10061-0.06587-0.04437-0.0063-0.0055 0.0099 0.0092 0.02004 0.0183 0.04066 0.0358 0.06013 0.05477 0.03883 0.03784 0.07529 0.07822 0.10888 0.12078-0.04783-0.06059-0.01151-0.01473-0.0034-9.3e-4 0.01657 0.02821 0.03534 0.05496 0.05141 0.08354 0.01071 0.01905 0.02096 0.03844 0.03066 0.05803 0.0098 0.01968 0.01897 0.03961 0.02766 0.05978-0.01364-0.03396-0.01582-0.03828-0.0065-0.01298 0.01776 0.05308 0.03361 0.10619 0.04503 0.16104 0.0035 0.01659 0.01505 0.08982 0.0066 0.02241 0.0036 0.02854 0.0052 0.05739 0.0064 0.08611 0.0024 0.058 8e-4 0.11594-0.0047 0.17372-0.0061 0.06324 0.01948-0.07988-0.0048 0.023-0.0078 0.03287-0.01415 0.06561-0.02323 0.09819-0.0089 0.03214-0.01963 0.06361-0.03078 0.09504 0.0053-0.01488 0.0307-0.0618-0.0014 0.0015-0.02482 0.04894-0.04904 0.09748-0.07844 0.14389 3e-4 -4.7e-4 -0.05925 0.08846-0.02541 0.04033 0.03337-0.04745-0.03042 0.03578-0.03072 0.03612-0.04317 0.04915-0.09036 0.09326-0.13969 0.13612-0.05525 0.04801-0.0098 0.0069 0.0025-0.0014-0.02715 0.01828-0.05395 0.03671-0.08207 0.05352-0.04695 0.02805-0.09581 0.05334-0.14614 0.07475 0.07078-0.0301-0.0761 0.02162-0.09879 0.02732-0.02182 0.0055-0.04391 0.0095-0.06579 0.01463-0.04256 0.0068-0.04452 0.0078-0.0059 0.0031-0.01712 2e-3 -0.03428 0.0035-0.05149 0.0045-0.05217 0.0036-0.1045 0.0041-0.15672 0.0012-0.0085-4.7e-4 -0.11751-0.01694-0.04124-0.0028-0.02221-0.0041-0.04438-8e-3 -0.06643-0.01289-0.0545-0.01212-0.10759-0.02849-0.16016-0.04712 0.07812 0.02768-0.02094-0.01054-0.03115-0.01559-0.02939-0.01455-0.05821-0.03027-0.08636-0.04709-0.02214-0.01323-0.04506-0.03417-0.06864-0.04425-0.05123-0.0219 0.06058 0.05599-0.01092-0.0079-0.04067-0.03632-0.08079-0.07184-0.1179-0.11195-0.01833-0.01981-0.03444-0.04229-0.05321-0.06154-0.04112-0.04216 0.0434 0.07394-0.0069-0.01171-0.03336-0.05685-0.06638-0.11228-0.09629-0.17125-0.0068-0.01341-0.02423-0.06587-0.0014-0.0015-0.01115-0.03144-0.02179-0.0629-0.03078-0.09504-6e-3 -0.02154-0.01146-0.04331-0.01634-0.06513 9.9e-4 0.0044-0.01898-0.104-0.01145-0.05269 0.0075 0.05146-0.0045-0.05967-0.0042-0.05499-0.0016-0.02907-0.0021-0.05813-0.0017-0.08723 4e-4 -0.02901 0.0024-0.05779 4e-3 -0.08674 0.0046-0.08333-0.01226 0.03326 0.0064-0.04012 0.01663-0.0653 0.03144-0.12959 0.05401-0.19323-0.0243 0.06852-4.2e-4 8.6e-4 0.0085-0.01631 0.01767-0.03405 0.03449-0.06821 0.0542-0.1012 0.01116-0.01867 0.02399-0.03647 0.03498-0.05521 0.0258-0.03616 0.02466-0.03585-0.0034 9.3e-4 0.01346-0.01703 0.02736-0.0337 0.04169-0.05001 0.03578-0.04074 0.07422-0.07917 0.11496-0.11495 0.0113-0.0099 0.09666-0.06989 0.02222-0.01975 0.02718-0.01831 0.05392-0.03669 0.08207-0.05352 0.02815-0.01682 0.05697-0.03254 0.08636-0.04709 0.0159-0.0079 0.10513-0.04183 0.03115-0.01559 0.06387-0.02265 0.12772-0.03732 0.19322-0.05401 0.01147-0.0029 0.06989-0.01117 0.0059-0.0031 0.0459-0.0058 0.09228-0.0069 0.13847-0.0076 0.20249-0.0028 0.375-0.17051 0.375-0.375 0-0.20099-0.17182-0.37779-0.375-0.375z" fill="#2d3142"/>
 <line x1="27.5" x2="35" y1="15" y2="15" fill="none" stroke="#2d3142" stroke-miterlimit="10" stroke-width=".75"/>
 
 
<text class="component-reference component-text moveable-text locked" font-size="4.5px" x="20" y="-5" text-anchor="middle" direction="" flipped="" style="" transform=" rotate(-90 20 -6.562499761581421)">SW3</text><text class="component-value component-text moveable-text locked" font-size="4.5px" x="20" y="0" text-anchor="middle" direction="" flipped="" style="" transform=" rotate(-90 0 0)"/></g><path class="wire" d="M2525,2105 H2625" id="wire_segment18"/><path class="wire" d="M2625,2105 H2665" id="wire_segment18-0"/><path class="wire" d="M2625,2155 H2665" id="wire_segment21"/><path class="wire" d="M2665,2105 V2155" id="wire_segment23"/><path class="wire" d="M2665,2155 V2205" id="wire_segment23-0"/><path class="wire" d="M2625,2205 H2665" id="wire_segment25"/><path class="wire" d="M2525,2145 H2625" id="wire_segment28"/><path class="wire" d="M2625,2135 V2145" id="wire_segment29"/><path class="wire" d="M2525,2165 H2600" id="wire_segment30"/><path class="wire" d="M2600,2165 V2185" id="wire_segment31"/><path class="wire" d="M2600,2185 H2625" id="wire_segment32"/><path class="wire" d="M2525,2275 H2625" id="wire_segment33"/><path class="wire" d="M2625,2235 V2275" id="wire_segment34"/><g data-source-id="f619c8aaf86ce2163600d389bbbc638c" data-source-name="Raspberry Pi Pico" data-width="90" data-height="235" class="component" id="part_35" transform="translate(2220,2060) scale(1,1) rotate(180,45,117.5)"><rect class="helper-box" x="3.5" y="5" width="83" height="230.30418395996094" fill="none"/>
 <rect x="15" y="5" width="59.982" height="220" rx="1" ry="1" fill="#fbdd71" stroke="#2d3142"/>
 <g transform="translate(-10,5)">
  <title>Left Pin</title>
  <line x1="25" x2="15" y1="15" y2="15" fill="none" stroke="#2d3142" stroke-width=".75"/>
  <text x="22.5" y="13" fill="#2d3142" font-family="Nunito" font-size="6px" font-weight="500" text-anchor="end" direction="" flipped="" transform=" rotate(180 20.70056939125061 10.99466609954834)">1</text>
  <text x="27.5" y="17" fill="#2d3142" font-family="Nunito" font-size="6px" font-weight="500" direction="" flipped="" transform=" rotate(180 33.37723922729492 14.994666576385498)">GP0</text>
  
 </g>
 <g transform="translate(-10,65)">
  <title>Left Pin</title>
  <line x1="25" x2="15" y1="15" y2="15" fill="none" stroke="#2d3142" stroke-width=".75"/>
  <text x="22.5" y="13" fill="#2d3142" font-family="Nunito" font-size="6px" font-weight="500" text-anchor="end" direction="" flipped="" transform=" rotate(180 20.70056939125061 10.99466609954834)">7</text>
  <text x="27.5" y="17" fill="#2d3142" font-family="Nunito" font-size="6px" font-weight="500" direction="" flipped="" transform=" rotate(180 33.37723922729492 14.994666576385498)">GP5</text>
  
 </g>
 <g transform="translate(-10 44.975)">
  <title>Left Pin</title>
  <line x1="25" x2="15" y1="15" y2="15" fill="none" stroke="#2d3142" stroke-width=".75"/>
  <text x="22.5" y="13" fill="#2d3142" font-family="Nunito" font-size="6px" font-weight="500" text-anchor="end" direction="" flipped="" transform=" rotate(180 20.70056939125061 10.99466609954834)">5</text>
  <text x="27.5" y="17" fill="#2d3142" font-family="Nunito" font-size="6px" font-weight="500" direction="" flipped="" transform=" rotate(180 33.37723922729492 14.994666576385498)">GP3</text>
  
 </g>
 <g transform="translate(-10,105)">
  <title>Left Pin</title>
  <line x1="25" x2="15" y1="15" y2="15" fill="none" stroke="#2d3142" stroke-width=".75"/>
  <text x="22.5" y="13" fill="#2d3142" font-family="Nunito" font-size="6px" font-weight="500" text-anchor="end" direction="" flipped="" transform=" rotate(180 18.901139736175537 10.99466609954834)">11</text>
  <text x="27.5" y="17" fill="#2d3142" font-family="Nunito" font-size="6px" font-weight="500" direction="" flipped="" transform=" rotate(180 33.37723922729492 14.994666576385498)">GP8</text>
  
 </g>
 <g transform="translate(60,5)">
  <title>Right Pin</title>
  <line x1="15" x2="25" y1="15" y2="15" fill="none" stroke="#2d3142" stroke-width=".75"/>
  <text x="17.5" y="13" fill="#2d3142" font-family="Nunito" font-size="6px" font-weight="500" direction="" flipped="" transform=" rotate(180 21.09885883331299 10.99466609954834)">40</text>
  <text x="12.5" y="17" fill="#2d3142" font-family="Nunito" font-size="6px" font-weight="500" text-anchor="end" direction="" flipped="" transform=" rotate(180 4.533750772476196 14.994666576385498)">VBUS</text>
  
 </g>
 <g transform="translate(60,155)">
  <title>Right Pin</title>
  <line x1="15" x2="25" y1="15" y2="15" fill="none" stroke="#2d3142" stroke-width=".75"/>
  <text x="17.5" y="13" fill="#2d3142" font-family="Nunito" font-size="6px" font-weight="500" direction="" flipped="" transform=" rotate(180 21.09885883331299 10.99466609954834)">25</text>
  <text x="12.5" y="17" fill="#2d3142" font-family="Nunito" font-size="6px" font-weight="500" text-anchor="end" direction="" flipped="" transform=" rotate(180 4.823330640792847 14.994666576385498)">GP19</text>
  
 </g>
 <g transform="translate(60,55)">
  <title>Right Pin</title>
  <line x1="15" x2="25" y1="15" y2="15" fill="none" stroke="#2d3142" stroke-width=".75"/>
  <text x="17.5" y="13" fill="#2d3142" font-family="Nunito" font-size="6px" font-weight="500" direction="" flipped="" transform=" rotate(180 21.09885883331299 10.99466609954834)">35</text>
  <text x="12.5" y="17" fill="#2d3142" font-family="Nunito" font-size="6px" font-weight="500" text-anchor="end" direction="" flipped="" transform=" rotate(180 -2.6941423416137695 14.994666576385498)">ADC_VREF</text>
  
 </g>
 <g transform="translate(60,65)">
  <title>Right Pin</title>
  <line x1="15" x2="25" y1="15" y2="15" fill="none" stroke="#2d3142" stroke-width=".75"/>
  <text x="17.5" y="13" fill="#2d3142" font-family="Nunito" font-size="6px" font-weight="500" direction="" flipped="" transform=" rotate(180 21.09885883331299 10.99466609954834)">34</text>
  <text x="12.5" y="17" fill="#2d3142" font-family="Nunito" font-size="6px" font-weight="500" text-anchor="end" direction="" flipped="" transform=" rotate(180 4.823330640792847 14.994666576385498)">GP28</text>
  
 </g>
 <g transform="translate(60,15)">
  <title>Right Pin</title>
  <line x1="15" x2="25" y1="15" y2="15" fill="none" stroke="#2d3142" stroke-width=".75"/>
  <text x="17.5" y="13" fill="#2d3142" font-family="Nunito" font-size="6px" font-weight="500" direction="" flipped="" transform=" rotate(180 21.09885883331299 10.99466609954834)">39</text>
  <text x="12.5" y="17" fill="#2d3142" font-family="Nunito" font-size="6px" font-weight="500" text-anchor="end" direction="" flipped="" transform=" rotate(180 5.267522811889648 14.994666576385498)">VSYS</text>
  
 </g>
 <g transform="translate(60,25)">
  <title>Right Pin</title>
  <line x1="15" x2="25" y1="15" y2="15" fill="none" stroke="#2d3142" stroke-width=".75"/>
  <text x="17.5" y="13" fill="#2d3142" font-family="Nunito" font-size="6px" font-weight="500" direction="" flipped="" transform=" rotate(180 21.09885883331299 10.99466609954834)">38</text>
  <text x="12.5" y="17" fill="#2d3142" font-family="Nunito" font-size="6px" font-weight="500" text-anchor="end" direction="" flipped="" transform=" rotate(180 5.93887722492218 14.994666576385498)">GND</text>
  
 </g>
 <g transform="translate(60,35)">
  <title>Right Pin</title>
  <line x1="15" x2="25" y1="15" y2="15" fill="none" stroke="#2d3142" stroke-width=".75"/>
  <text x="17.5" y="13" fill="#2d3142" font-family="Nunito" font-size="6px" font-weight="500" direction="" flipped="" transform=" rotate(180 21.09885883331299 10.99466609954834)">37</text>
  <text x="12.5" y="17" fill="#2d3142" font-family="Nunito" font-size="6px" font-weight="500" text-anchor="end" direction="" flipped="" transform=" rotate(180 1.363234519958496 14.994666576385498)">3V3_EN</text>
  
 </g>
 <g transform="translate(60,45)">
  <title>Right Pin</title>
  <line x1="15" x2="25" y1="15" y2="15" fill="none" stroke="#2d3142" stroke-width=".75"/>
  <text x="17.5" y="13" fill="#2d3142" font-family="Nunito" font-size="6px" font-weight="500" direction="" flipped="" transform=" rotate(180 21.09885883331299 10.99466609954834)">36</text>
  <text x="12.5" y="17" fill="#2d3142" font-family="Nunito" font-size="6px" font-weight="500" text-anchor="end" direction="" flipped="" transform=" rotate(180 -0.6516084671020508 14.994666576385498)">3V3_OUT</text>
  
 </g>
 <g transform="translate(60,145)">
  <title>Right Pin</title>
  <line x1="15" x2="25" y1="15" y2="15" fill="none" stroke="#2d3142" stroke-width=".75"/>
  <text x="17.5" y="13" fill="#2d3142" font-family="Nunito" font-size="6px" font-weight="500" direction="" flipped="" transform=" rotate(180 21.09885883331299 10.99466609954834)">26</text>
  <text x="12.5" y="17" fill="#2d3142" font-family="Nunito" font-size="6px" font-weight="500" text-anchor="end" direction="" flipped="" transform=" rotate(180 4.823330640792847 14.994666576385498)">GP20</text>
  
 </g>
 <g transform="translate(60,185)">
  <title>Right Pin</title>
  <line x1="15" x2="25" y1="15" y2="15" fill="none" stroke="#2d3142" stroke-width=".75"/>
  <text x="17.5" y="13" fill="#2d3142" font-family="Nunito" font-size="6px" font-weight="500" direction="" flipped="" transform=" rotate(180 21.09885883331299 10.99466609954834)">22</text>
  <text x="12.5" y="17" fill="#2d3142" font-family="Nunito" font-size="6px" font-weight="500" text-anchor="end" direction="" flipped="" transform=" rotate(180 4.823330640792847 14.994666576385498)">GP17</text>
  
 </g>
 <g transform="translate(60,95)">
  <title>Right Pin</title>
  <line x1="15" x2="25" y1="15" y2="15" fill="none" stroke="#2d3142" stroke-width=".75"/>
  <text x="17.5" y="13" fill="#2d3142" font-family="Nunito" font-size="6px" font-weight="500" direction="" flipped="" transform=" rotate(180 21.09885883331299 10.99466609954834)">31</text>
  <text x="12.5" y="17" fill="#2d3142" font-family="Nunito" font-size="6px" font-weight="500" text-anchor="end" direction="" flipped="" transform=" rotate(180 4.823330640792847 14.994666576385498)">GP26</text>
  
 </g>
 <g transform="translate(60,115)">
  <title>Right Pin</title>
  <line x1="15" x2="25" y1="15" y2="15" fill="none" stroke="#2d3142" stroke-width=".75"/>
  <text x="17.5" y="13" fill="#2d3142" font-family="Nunito" font-size="6px" font-weight="500" direction="" flipped="" transform=" rotate(180 21.09885883331299 10.99466609954834)">29</text>
  <text x="12.5" y="17" fill="#2d3142" font-family="Nunito" font-size="6px" font-weight="500" text-anchor="end" direction="" flipped="" transform=" rotate(180 4.823330640792847 14.994666576385498)">GP22</text>
  
 </g>
 <g transform="translate(60,125)">
  <title>Right Pin</title>
  <line x1="15" x2="25" y1="15" y2="15" fill="none" stroke="#2d3142" stroke-width=".75"/>
  <text x="17.5" y="13" fill="#2d3142" font-family="Nunito" font-size="6px" font-weight="500" direction="" flipped="" transform=" rotate(180 21.09885883331299 10.99466609954834)">28</text>
  <text x="12.5" y="17" fill="#2d3142" font-family="Nunito" font-size="6px" font-weight="500" text-anchor="end" direction="" flipped="" transform=" rotate(180 5.93887722492218 14.994666576385498)">GND</text>
  
 </g>
 <g transform="translate(60,85)">
  <title>Right Pin</title>
  <line x1="15" x2="25" y1="15" y2="15" fill="none" stroke="#2d3142" stroke-width=".75"/>
  <text x="17.5" y="13" fill="#2d3142" font-family="Nunito" font-size="6px" font-weight="500" direction="" flipped="" transform=" rotate(180 21.09885883331299 10.99466609954834)">32</text>
  <text x="12.5" y="17" fill="#2d3142" font-family="Nunito" font-size="6px" font-weight="500" text-anchor="end" direction="" flipped="" transform=" rotate(180 4.823330640792847 14.994666576385498)">GP27</text>
  
 </g>
 <g transform="translate(60,195)">
  <title>Right Pin</title>
  <line x1="15" x2="25" y1="15" y2="15" fill="none" stroke="#2d3142" stroke-width=".75"/>
  <text x="17.5" y="13" fill="#2d3142" font-family="Nunito" font-size="6px" font-weight="500" direction="" flipped="" transform=" rotate(180 21.09885883331299 10.99466609954834)">21</text>
  <text x="12.5" y="17" fill="#2d3142" font-family="Nunito" font-size="6px" font-weight="500" text-anchor="end" direction="" flipped="" transform=" rotate(180 4.823330640792847 14.994666576385498)">GP16</text>
  
 </g>
 <g transform="translate(60,105)">
  <title>Right Pin</title>
  <line x1="15" x2="25" y1="15" y2="15" fill="none" stroke="#2d3142" stroke-width=".75"/>
  <text x="17.5" y="13" fill="#2d3142" font-family="Nunito" font-size="6px" font-weight="500" direction="" flipped="" transform=" rotate(180 21.09885883331299 10.99466609954834)">30</text>
  <text x="12.5" y="17" fill="#2d3142" font-family="Nunito" font-size="6px" font-weight="500" text-anchor="end" direction="" flipped="" transform=" rotate(180 6.090093016624451 14.994666576385498)">RUN</text>
  
 </g>
 <g transform="translate(60,75)">
  <title>Right Pin</title>
  <line x1="15" x2="25" y1="15" y2="15" fill="none" stroke="#2d3142" stroke-width=".75"/>
  <text x="17.5" y="13" fill="#2d3142" font-family="Nunito" font-size="6px" font-weight="500" direction="" flipped="" transform=" rotate(180 21.09885883331299 10.99466609954834)">33</text>
  <text x="12.5" y="17" fill="#2d3142" font-family="Nunito" font-size="6px" font-weight="500" text-anchor="end" direction="" flipped="" transform=" rotate(180 5.93887722492218 14.994666576385498)">GND</text>
  
 </g>
 <g transform="translate(60,175)">
  <title>Right Pin</title>
  <line x1="15" x2="25" y1="15" y2="15" fill="none" stroke="#2d3142" stroke-width=".75"/>
  <text x="17.5" y="13" fill="#2d3142" font-family="Nunito" font-size="6px" font-weight="500" direction="" flipped="" transform=" rotate(180 21.09885883331299 10.99466609954834)">23</text>
  <text x="12.5" y="17" fill="#2d3142" font-family="Nunito" font-size="6px" font-weight="500" text-anchor="end" direction="" flipped="" transform=" rotate(180 5.93887722492218 14.994666576385498)">GND</text>
  
 </g>
 <g transform="translate(60,165)">
  <title>Right Pin</title>
  <line x1="15" x2="25" y1="15" y2="15" fill="none" stroke="#2d3142" stroke-width=".75"/>
  <text x="17.5" y="13" fill="#2d3142" font-family="Nunito" font-size="6px" font-weight="500" direction="" flipped="" transform=" rotate(180 21.09885883331299 10.99466609954834)">24</text>
  <text x="12.5" y="17" fill="#2d3142" font-family="Nunito" font-size="6px" font-weight="500" text-anchor="end" direction="" flipped="" transform=" rotate(180 4.823330640792847 14.994666576385498)">GP18</text>
  
 </g>
 <g transform="translate(60,135)">
  <title>Right Pin</title>
  <line x1="15" x2="25" y1="15" y2="15" fill="none" stroke="#2d3142" stroke-width=".75"/>
  <text x="17.5" y="13" fill="#2d3142" font-family="Nunito" font-size="6px" font-weight="500" direction="" flipped="" transform=" rotate(180 21.09885883331299 10.99466609954834)">27</text>
  <text x="12.5" y="17" fill="#2d3142" font-family="Nunito" font-size="6px" font-weight="500" text-anchor="end" direction="" flipped="" transform=" rotate(180 4.823330640792847 14.994666576385498)">GP21</text>
  
 </g>
 <g transform="translate(-10,135)">
  <title>Left Pin</title>
  <line x1="25" x2="15" y1="15" y2="15" fill="none" stroke="#2d3142" stroke-width=".75"/>
  <text x="22.5" y="13" fill="#2d3142" font-family="Nunito" font-size="6px" font-weight="500" text-anchor="end" direction="" flipped="" transform=" rotate(180 18.901139736175537 10.99466609954834)">14</text>
  <text x="27.5" y="17" fill="#2d3142" font-family="Nunito" font-size="6px" font-weight="500" direction="" flipped="" transform=" rotate(180 35.17666816711426 14.994666576385498)">GP10</text>
  
 </g>
 <g transform="translate(-10 195)">
  <title>Left Pin</title>
  <line x1="25" x2="15" y1="15" y2="15" fill="none" stroke="#2d3142" stroke-width=".75"/>
  <text x="22.5" y="13" fill="#2d3142" font-family="Nunito" font-size="6px" font-weight="500" text-anchor="end" direction="" flipped="" transform=" rotate(180 18.901139736175537 10.99466609954834)">20</text>
  <text x="27.5" y="17" fill="#2d3142" font-family="Nunito" font-size="6px" font-weight="500" direction="" flipped="" transform=" rotate(180 35.17666816711426 14.994666576385498)">GP15</text>
  
 </g>
 <g transform="translate(-10 74.988)">
  <title>Left Pin</title>
  <line x1="25" x2="15" y1="15" y2="15" fill="none" stroke="#2d3142" stroke-width=".75"/>
  <text x="22.5" y="13" fill="#2d3142" font-family="Nunito" font-size="6px" font-weight="500" text-anchor="end" direction="" flipped="" transform=" rotate(180 20.70056939125061 10.99466609954834)">8</text>
  <text x="27.5" y="17" fill="#2d3142" font-family="Nunito" font-size="6px" font-weight="500" direction="" flipped="" transform=" rotate(180 34.18840456008911 14.994666576385498)">GND</text>
  
 </g>
 <g transform="translate(-10 164.93)">
  <title>Left Pin</title>
  <line x1="25" x2="15" y1="15" y2="15" fill="none" stroke="#2d3142" stroke-width=".75"/>
  <text x="22.5" y="13" fill="#2d3142" font-family="Nunito" font-size="6px" font-weight="500" text-anchor="end" direction="" flipped="" transform=" rotate(180 18.901139736175537 10.99466609954834)">17</text>
  <text x="27.5" y="17" fill="#2d3142" font-family="Nunito" font-size="6px" font-weight="500" direction="" flipped="" transform=" rotate(180 35.17666816711426 14.994666576385498)">GP13</text>
  
 </g>
 <g transform="translate(-10 54.949)">
  <title>Left Pin</title>
  <line x1="25" x2="15" y1="15" y2="15" fill="none" stroke="#2d3142" stroke-width=".75"/>
  <text x="22.5" y="13" fill="#2d3142" font-family="Nunito" font-size="6px" font-weight="500" text-anchor="end" direction="" flipped="" transform=" rotate(180 20.70056939125061 10.99466609954834)">6</text>
  <text x="27.5" y="17" fill="#2d3142" font-family="Nunito" font-size="6px" font-weight="500" direction="" flipped="" transform=" rotate(180 33.37723922729492 14.994666576385498)">GP4</text>
  
 </g>
 <g transform="translate(-10,185)">
  <title>Left Pin</title>
  <line x1="25" x2="15" y1="15" y2="15" fill="none" stroke="#2d3142" stroke-width=".75"/>
  <text x="22.5" y="13" fill="#2d3142" font-family="Nunito" font-size="6px" font-weight="500" text-anchor="end" direction="" flipped="" transform=" rotate(180 18.901139736175537 10.99466609954834)">19</text>
  <text x="27.5" y="17" fill="#2d3142" font-family="Nunito" font-size="6px" font-weight="500" direction="" flipped="" transform=" rotate(180 35.17666816711426 14.994666576385498)">GP14</text>
  
 </g>
 <g transform="translate(-10,35)">
  <title>Left Pin</title>
  <line x1="25" x2="15" y1="15" y2="15" fill="none" stroke="#2d3142" stroke-width=".75"/>
  <text x="22.5" y="13" fill="#2d3142" font-family="Nunito" font-size="6px" font-weight="500" text-anchor="end" direction="" flipped="" transform=" rotate(180 20.70056939125061 10.99466609954834)">4</text>
  <text x="27.5" y="17" fill="#2d3142" font-family="Nunito" font-size="6px" font-weight="500" direction="" flipped="" transform=" rotate(180 33.37723922729492 14.994666576385498)">GP2</text>
  
 </g>
 <g transform="translate(-10 114.99)">
  <title>Left Pin</title>
  <line x1="25" x2="15" y1="15" y2="15" fill="none" stroke="#2d3142" stroke-width=".75"/>
  <text x="22.5" y="13" fill="#2d3142" font-family="Nunito" font-size="6px" font-weight="500" text-anchor="end" direction="" flipped="" transform=" rotate(180 18.901139736175537 10.99466609954834)">12</text>
  <text x="27.5" y="17" fill="#2d3142" font-family="Nunito" font-size="6px" font-weight="500" direction="" flipped="" transform=" rotate(180 33.37723922729492 14.994666576385498)">GP9</text>
  
 </g>
 <g transform="translate(-10 145.02)">
  <title>Left Pin</title>
  <line x1="25" x2="15" y1="15" y2="15" fill="none" stroke="#2d3142" stroke-width=".75"/>
  <text x="22.5" y="13" fill="#2d3142" font-family="Nunito" font-size="6px" font-weight="500" text-anchor="end" direction="" flipped="" transform=" rotate(180 18.901139736175537 10.99466609954834)">15</text>
  <text x="27.5" y="17" fill="#2d3142" font-family="Nunito" font-size="6px" font-weight="500" direction="" flipped="" transform=" rotate(180 35.17666816711426 14.994666576385498)">GP11</text>
  
 </g>
 <g transform="translate(-10,175)">
  <title>Left Pin</title>
  <line x1="25" x2="15" y1="15" y2="15" fill="none" stroke="#2d3142" stroke-width=".75"/>
  <text x="22.5" y="13" fill="#2d3142" font-family="Nunito" font-size="6px" font-weight="500" text-anchor="end" direction="" flipped="" transform=" rotate(180 18.901139736175537 10.99466609954834)">18</text>
  <text x="27.5" y="17" fill="#2d3142" font-family="Nunito" font-size="6px" font-weight="500" direction="" flipped="" transform=" rotate(180 34.18840456008911 14.994666576385498)">GND</text>
  
 </g>
 <g transform="translate(-10 125.02)">
  <title>Left Pin</title>
  <line x1="25" x2="15" y1="15" y2="15" fill="none" stroke="#2d3142" stroke-width=".75"/>
  <text x="22.5" y="13" fill="#2d3142" font-family="Nunito" font-size="6px" font-weight="500" text-anchor="end" direction="" flipped="" transform=" rotate(180 18.901139736175537 10.99466609954834)">13</text>
  <text x="27.5" y="17" fill="#2d3142" font-family="Nunito" font-size="6px" font-weight="500" direction="" flipped="" transform=" rotate(180 34.18840456008911 14.994666576385498)">GND</text>
  
 </g>
 <g transform="translate(-10,25)">
  <title>Left Pin</title>
  <line x1="25" x2="15" y1="15" y2="15" fill="none" stroke="#2d3142" stroke-width=".75"/>
  <text x="22.5" y="13" fill="#2d3142" font-family="Nunito" font-size="6px" font-weight="500" text-anchor="end" direction="" flipped="" transform=" rotate(180 20.70056939125061 10.99466609954834)">3</text>
  <text x="27.5" y="17" fill="#2d3142" font-family="Nunito" font-size="6px" font-weight="500" direction="" flipped="" transform=" rotate(180 34.18840456008911 14.994666576385498)">GND</text>
  
 </g>
 <g transform="translate(-10,155)">
  <title>Left Pin</title>
  <line x1="25" x2="15" y1="15" y2="15" fill="none" stroke="#2d3142" stroke-width=".75"/>
  <text x="22.5" y="13" fill="#2d3142" font-family="Nunito" font-size="6px" font-weight="500" text-anchor="end" direction="" flipped="" transform=" rotate(180 18.901139736175537 10.99466609954834)">16</text>
  <text x="27.5" y="17" fill="#2d3142" font-family="Nunito" font-size="6px" font-weight="500" direction="" flipped="" transform=" rotate(180 35.17666816711426 14.994666576385498)">GP12</text>
  
 </g>
 <g transform="translate(-10 15.027)">
  <title>Left Pin</title>
  <line x1="25" x2="15" y1="15" y2="15" fill="none" stroke="#2d3142" stroke-width=".75"/>
  <text x="22.5" y="13" fill="#2d3142" font-family="Nunito" font-size="6px" font-weight="500" text-anchor="end" direction="" flipped="" transform=" rotate(180 20.70056939125061 10.99466609954834)">2</text>
  <text x="27.5" y="17" fill="#2d3142" font-family="Nunito" font-size="6px" font-weight="500" direction="" flipped="" transform=" rotate(180 33.37723922729492 14.994666576385498)">GP1</text>
  
 </g>
 <g transform="translate(-10,85)">
  <title>Left Pin</title>
  <line x1="25" x2="15" y1="15" y2="15" fill="none" stroke="#2d3142" stroke-width=".75"/>
  <text x="22.5" y="13" fill="#2d3142" font-family="Nunito" font-size="6px" font-weight="500" text-anchor="end" direction="" flipped="" transform=" rotate(180 20.70056939125061 10.99466609954834)">9</text>
  <text x="27.5" y="17" fill="#2d3142" font-family="Nunito" font-size="6px" font-weight="500" direction="" flipped="" transform=" rotate(180 33.37723922729492 14.994666576385498)">GP6</text>
  
 </g>
 <g transform="translate(-10,95)">
  <title>Left Pin</title>
  <line x1="25" x2="15" y1="15" y2="15" fill="none" stroke="#2d3142" stroke-width=".75"/>
  <text x="22.5" y="13" fill="#2d3142" font-family="Nunito" font-size="6px" font-weight="500" text-anchor="end" direction="" flipped="" transform=" rotate(180 18.901139736175537 10.99466609954834)">10</text>
  <text x="27.5" y="17" fill="#2d3142" font-family="Nunito" font-size="6px" font-weight="500" direction="" flipped="" transform=" rotate(180 33.37723922729492 14.994666576385498)">GP7</text>
  
 </g>
 <text x="44.847515" y="232.7" fill="#2d3142" font-family="Nunito" font-size="7px" font-weight="500" stroke-linecap="square" stroke-linejoin="round" text-align="center" text-anchor="middle" xml:space="preserve" direction="" flipped="" transform=" rotate(180 44.90494918823242 230.40819025039673)">Raspberry Pi Pico</text>
<text class="component-reference component-text moveable-text locked" font-size="4.5px" x="90" y="116.5" direction="" flipped="" style="" transform=" rotate(-180 0 0)"/><text class="component-value component-text moveable-text locked" font-size="4.5px" x="90" y="121.5" direction="" flipped="" style="" transform=" rotate(-180 0 0)"/></g><path class="wire" d="M2525,2095 H2565" id="wire_segment36"/><path class="wire" d="M2565,2035 V2095" id="wire_segment37"/><path class="wire" d="M2195,2035 H2565" id="wire_segment38"/><path class="wire" d="M2195,2035 V2265" id="wire_segment39"/><path class="wire" d="M2195,2265 H2225" id="wire_segment40"/><path class="wire" d="M2305,2255 H2445" id="wire_segment41"/><path class="wire" d="M2305,2175 H2405" id="wire_segment43"/><path class="wire" d="M2405,2175 V2195" id="wire_segment44"/><path class="wire" d="M2405,2195 H2445" id="wire_segment45"/><text class="moveable-text textObject" font-family="Nunito-Medium, Nunito" font-size="8px" fill="#2d3142" x="1.4206250000002" y="-0.947083333333012" transform="translate(2255.08375, 2300.949583333333) scale(1,1) rotate(0,0,0)" id="sch_text_46">WH</text><text class="moveable-text textObject" font-family="Nunito-Medium, Nunito" font-size="8px" fill="#2d3142" x="-1.4206250000002" y="6.629583333333358" transform="translate(2482.38375, 2058.9697916666664) scale(1,1) rotate(0,0,0)" id="sch_text_47">H</text><text class="moveable-text textObject" font-family="Nunito-Medium, Nunito" font-size="10px" fill="#2d3142" x="-10.41791666666677" y="0.9470833333334667" transform="translate(2465,2320) scale(1,1) rotate(0,0,0)" id="sch_text_48">Circuit Python</text><text class="moveable-text textObject" font-family="Nunito-Medium, Nunito" font-size="10px" fill="#2d3142" x="0" y="0" transform="translate(2235,2320) scale(1,1) rotate(0,0,0)" id="sch_text_49">Micro Python</text><circle cx="2625" cy="2105" r="1.5" class="blob" fill="#2d3142"/><circle cx="2665" cy="2155" r="1.5" class="blob" fill="#2d3142"/></g><g transform="translate(170.75, 314.261962890625)" opacity="0.35">
 <g transform="translate(-2.5 -2.5)">
  <g transform="matrix(.5 0 0 .5 68.316 2.5)">
   <path d="m-125.48 22q-0.38133 0-0.58933-0.19067-0.19067-0.208-0.19067-0.58933v-10.66q0-0.38133 0.19067-0.572 0.208-0.208 0.58933-0.208h3.3453q2.964 0 4.576 1.56 1.612 1.56 1.612 4.5413 0 1.4907-0.41599 2.6347-0.39867 1.1267-1.196 1.9067-0.79733 0.78-1.9413 1.1787t-2.6347 0.39867zm0.64133-1.2133h2.6q1.2133 0 2.0973-0.312 0.90133-0.312 1.4907-0.91866 0.60667-0.60667 0.90133-1.5253 0.29467-0.936 0.29467-2.1493 0-2.444-1.196-3.6573-1.196-1.2307-3.588-1.2307h-2.6zm15.045 1.3693q-1.3347 0-2.3053-0.52-0.95333-0.53733-1.4907-1.508-0.52-0.97066-0.52-2.3227 0-1.3173 0.52-2.288 0.52-0.988 1.4213-1.5427 0.91867-0.55466 2.1147-0.55466 0.84933 0 1.5253 0.29467 0.676 0.27733 1.144 0.81466 0.48534 0.53733 0.728 1.3 0.26 0.76267 0.26 1.716 0 0.27733-0.156 0.416-0.156 0.12133-0.45066 0.12133h-6.032v-0.91866h5.7026l-0.27733 0.22533q0-0.936-0.27733-1.5773-0.27733-0.65866-0.81467-1.0053-0.51999-0.34667-1.3173-0.34667-0.88399 0-1.508 0.416-0.60667 0.39867-0.91867 1.1267-0.312 0.71067-0.312 1.664v0.104q0 1.5947 0.76267 2.4267 0.78 0.832 2.2013 0.832 0.58933 0 1.1613-0.156 0.58933-0.156 1.144-0.52 0.24266-0.156 0.43333-0.13867 0.208 0 0.32933 0.12133 0.12133 0.104 0.156 0.27733 0.052 0.156-0.0347 0.34667-0.0693 0.19067-0.29466 0.32933-0.572 0.416-1.352 0.64133t-1.5427 0.22533zm8.268 0q-0.78 0-1.5773-0.19067-0.78-0.19067-1.456-0.65866-0.17334-0.12133-0.24267-0.27733-0.0693-0.17333-0.052-0.32933 0.0347-0.17333 0.13867-0.29467 0.12133-0.12133 0.27733-0.13867 0.17333-0.03467 0.38133 0.06933 0.676 0.416 1.3 0.58933 0.64133 0.156 1.2653 0.156 0.988 0 1.4907-0.364 0.50267-0.364 0.50267-0.988 0-0.48533-0.32933-0.76266-0.32934-0.29467-1.04-0.45067l-1.5773-0.34667q-1.092-0.22533-1.6293-0.78-0.52-0.55466-0.52-1.4387 0-0.78 0.39866-1.3347 0.416-0.572 1.1613-0.884 0.74533-0.312 1.7333-0.312 0.76266 0 1.4387 0.208 0.69333 0.19067 1.248 0.624 0.17333 0.12133 0.22533 0.29467 0.06933 0.156 0.01733 0.32933-0.03467 0.156-0.156 0.27733-0.12133 0.104-0.29467 0.12133-0.17333 0.01733-0.364-0.104-0.52-0.34667-1.0573-0.50267-0.53734-0.17333-1.0573-0.17333-0.97067 0-1.4733 0.38133-0.50266 0.38133-0.50266 1.0053 0 0.48533 0.312 0.79733t0.97066 0.45067l1.5773 0.32933q1.1267 0.24267 1.6813 0.78 0.572 0.52 0.572 1.4213 0 1.144-0.91866 1.82-0.91867 0.676-2.444 0.676zm6.188-0.06933q-0.34667 0-0.52-0.19067-0.17333-0.208-0.17333-0.572v-7.0893q0-0.364 0.17333-0.55467t0.52-0.19067q0.32933 0 0.52 0.19067t0.19067 0.55467v7.0893q0 0.364-0.19067 0.572-0.17333 0.19067-0.52 0.19067zm0-10.539q-0.43333 0-0.676-0.22533-0.24267-0.24267-0.24267-0.64133 0-0.416 0.24267-0.624 0.24267-0.22533 0.676-0.22533 0.45067 0 0.676 0.22533 0.24267 0.208 0.24267 0.624 0 0.39867-0.24267 0.64133-0.22533 0.22533-0.676 0.22533zm7.0547 13.728q-0.91866 0-1.8027-0.22533-0.86666-0.208-1.5773-0.676-0.208-0.12133-0.27733-0.29467-0.052-0.17333-0.01733-0.34667 0.03467-0.156 0.156-0.29467 0.12133-0.12133 0.27733-0.156 0.17333-0.03467 0.34667 0.052 0.76266 0.468 1.456 0.64133t1.3693 0.17333q1.2307 0 1.8547-0.65866 0.64133-0.65867 0.64133-1.9067v-1.9587h0.17333q-0.26 1.0053-1.1093 1.5947-0.832 0.58933-1.9587 0.58933-1.1613 0-2.0107-0.52-0.84933-0.53733-1.3173-1.4907-0.45067-0.95333-0.45067-2.2013 0-0.936 0.26-1.6987 0.26-0.78 0.74533-1.3173 0.50267-0.55467 1.196-0.84933 0.71066-0.312 1.5773-0.312 1.144 0 1.976 0.58933 0.832 0.572 1.0747 1.56l-0.17333 0.208v-1.612q0-0.34667 0.17333-0.52 0.19067-0.19067 0.52-0.19067 0.34667 0 0.52 0.19067 0.17333 0.17333 0.17333 0.52v7.228q0 1.924-0.97066 2.8947-0.95333 0.988-2.8253 0.988zm-0.208-4.6107q0.81466 0 1.404-0.364 0.58933-0.38133 0.90133-1.0747 0.32933-0.69333 0.32933-1.6293 0-1.404-0.71066-2.2187-0.71066-0.832-1.924-0.832-0.79733 0-1.3867 0.38133-0.58933 0.364-0.91866 1.0573-0.312 0.676-0.312 1.612 0 1.404 0.71067 2.236 0.71066 0.832 1.9067 0.832zm7.332 1.456q-0.34667 0-0.52-0.19067t-0.17333-0.53733v-7.228q0-0.34667 0.17333-0.52 0.17333-0.19067 0.50266-0.19067 0.32933 0 0.50267 0.19067 0.19067 0.17333 0.19067 0.52v1.4907l-0.19067-0.208q0.364-1.0053 1.1787-1.508 0.832-0.52 1.9067-0.52 1.0053 0 1.664 0.364 0.676 0.364 1.0053 1.1093 0.32933 0.728 0.32933 1.8547v4.6453q0 0.34667-0.19067 0.53733-0.17333 0.19067-0.50267 0.19067-0.34667 0-0.53733-0.19067-0.17333-0.19067-0.17333-0.53733v-4.5587q0-1.1787-0.468-1.716-0.45067-0.55467-1.456-0.55467-1.1613 0-1.8547 0.728-0.676 0.71066-0.676 1.9067v4.1947q0 0.728-0.71066 0.728zm12.948 0.03467q-1.3347 0-2.3053-0.52-0.95333-0.53733-1.4907-1.508-0.52-0.97066-0.52-2.3227 0-1.3173 0.52-2.288 0.52-0.988 1.4213-1.5427 0.91866-0.55466 2.1147-0.55466 0.84933 0 1.5253 0.29467 0.676 0.27733 1.144 0.81466 0.48533 0.53733 0.728 1.3 0.26 0.76267 0.26 1.716 0 0.27733-0.156 0.416-0.156 0.12133-0.45067 0.12133h-6.032v-0.91866h5.7027l-0.27733 0.22533q0-0.936-0.27733-1.5773-0.27733-0.65866-0.81466-1.0053-0.52-0.34667-1.3173-0.34667-0.884 0-1.508 0.416-0.60667 0.39867-0.91866 1.1267-0.312 0.71067-0.312 1.664v0.104q0 1.5947 0.76266 2.4267 0.78 0.832 2.2013 0.832 0.58933 0 1.1613-0.156 0.58933-0.156 1.144-0.52 0.24267-0.156 0.43333-0.13867 0.208 0 0.32933 0.12133 0.12133 0.104 0.156 0.27733 0.052 0.156-0.03467 0.34667-0.06933 0.19067-0.29467 0.32933-0.572 0.416-1.352 0.64133-0.78 0.22533-1.5427 0.22533zm8.632 0q-1.1267 0-1.976-0.53733-0.832-0.53733-1.3-1.508-0.45067-0.988-0.45067-2.3227 0-1.352 0.45067-2.3227 0.468-0.988 1.3-1.508 0.84933-0.53733 1.976-0.53733 1.144 0 1.9587 0.572 0.81466 0.572 1.092 1.5427h-0.19067v-5.1653q0-0.34667 0.17333-0.52 0.19067-0.19067 0.53733-0.19067 0.32933 0 0.50267 0.19067 0.19067 0.17333 0.19067 0.52v11.024q0 0.34667-0.17333 0.53733t-0.52 0.19067q-0.32933 0-0.52-0.19067-0.17333-0.19067-0.17333-0.53733v-1.6467l0.19067 0.24267q-0.27733 0.988-1.1093 1.5773-0.81466 0.58933-1.9587 0.58933zm0.29467-1.1267q0.78 0 1.3693-0.38133 0.58933-0.38133 0.90133-1.1093 0.32933-0.728 0.32933-1.7507 0-1.5773-0.71066-2.4093-0.69333-0.832-1.8893-0.832-0.79733 0-1.3867 0.38133-0.572 0.364-0.90133 1.092-0.312 0.71066-0.312 1.768 0 1.56 0.71067 2.4093 0.71066 0.832 1.8893 0.832zm15.184 1.092q-0.312 0-0.50267-0.156-0.19067-0.17333-0.312-0.50266l-3.8307-10.937q-0.12133-0.364 0.052-0.60667 0.19067-0.26 0.58933-0.26 0.29467 0 0.468 0.156 0.17333 0.13867 0.29467 0.45067l3.588 10.521h-0.60666l3.6573-10.469q0.12133-0.32933 0.29467-0.48533 0.17333-0.17333 0.468-0.17333 0.27733 0 0.43333 0.17333 0.17333 0.156 0.29467 0.48533l3.6053 10.469h-0.53733l3.6227-10.521q0.08667-0.29467 0.26-0.45067 0.19067-0.156 0.48533-0.156 0.364 0 0.53733 0.24267 0.17333 0.24267 0.03467 0.624l-3.848 10.937q-0.12133 0.32933-0.312 0.50266-0.17333 0.156-0.50267 0.156-0.312 0-0.50266-0.156-0.17333-0.17333-0.312-0.50266l-3.484-10.036h0.38133l-3.5187 10.036q-0.12133 0.32933-0.29467 0.50266-0.17333 0.156-0.50267 0.156zm16.077-0.03467q-0.34667 0-0.52-0.19067-0.17333-0.208-0.17333-0.572v-7.0893q0-0.364 0.17333-0.55467t0.52-0.19067q0.32933 0 0.52 0.19067t0.19067 0.55467v7.0893q0 0.364-0.19067 0.572-0.17333 0.19067-0.52 0.19067zm0-10.539q-0.43333 0-0.676-0.22533-0.24267-0.24267-0.24267-0.64133 0-0.416 0.24267-0.624 0.24267-0.22533 0.676-0.22533 0.45067 0 0.676 0.22533 0.24267 0.208 0.24267 0.624 0 0.39867-0.24267 0.64133-0.22533 0.22533-0.676 0.22533zm6.708 10.608q-0.988 0-1.664-0.34667-0.65866-0.364-0.988-1.04-0.32933-0.69333-0.32933-1.6813v-4.42h-1.1613q-0.29467 0-0.45067-0.13867-0.156-0.156-0.156-0.416 0-0.26 0.156-0.39867 0.156-0.13867 0.45067-0.13867h1.1613v-1.9933q0-0.34667 0.19067-0.52 0.19067-0.19067 0.52-0.19067t0.50267 0.19067q0.19067 0.17333 0.19067 0.52v1.9933h2.184q0.29467 0 0.45066 0.13867 0.156 0.13867 0.156 0.39867 0 0.26-0.156 0.416-0.156 0.13867-0.45066 0.13867h-2.184v4.2813q0 0.988 0.416 1.508 0.416 0.50267 1.352 0.50267 0.32933 0 0.55467-0.06933 0.24267-0.06933 0.39867-0.06933 0.156-0.01733 0.26 0.104 0.104 0.12133 0.104 0.416 0 0.208-0.08667 0.38133-0.06933 0.17333-0.26 0.24267-0.208 0.06933-0.55466 0.12133-0.32933 0.06933-0.60667 0.06933zm3.4859-0.03467q-0.34667 0-0.52-0.19067t-0.17333-0.53733v-11.024q0-0.34667 0.17333-0.52 0.17333-0.19067 0.52-0.19067 0.32933 0 0.52 0.19067 0.19067 0.17333 0.19067 0.52v5.0787h-0.22533q0.364-1.0053 1.1787-1.508 0.832-0.52 1.9067-0.52 1.0053 0 1.664 0.364 0.676 0.364 1.0053 1.1093 0.32933 0.728 0.32933 1.8547v4.6453q0 0.34667-0.19067 0.53733-0.17333 0.19067-0.50267 0.19067-0.34667 0-0.53733-0.19067-0.17333-0.19067-0.17333-0.53733v-4.5587q0-1.1787-0.468-1.716-0.45067-0.55467-1.456-0.55467-1.1613 0-1.8547 0.728-0.676 0.71066-0.676 1.9067v4.1947q0 0.728-0.71066 0.728z" fill="#2d3142" aria-label="Designed With"/>
   <path d="m16 3.2c-7.0692 0-12.8 5.7308-12.8 12.8 0 7.0692 5.7308 12.8 12.8 12.8 0.8837 0 1.6 0.7163 1.6 1.6 0 0.8836-0.7163 1.6-1.6 1.6-8.8366 0-16-7.1635-16-16 0-8.8366 7.1634-16 16-16 0.8837 0 1.6 0.71634 1.6 1.6 0 0.88366-0.7163 1.6-1.6 1.6z" clip-rule="evenodd" fill="#f7a541" fill-rule="evenodd"/>
   <path d="m19.121 31.696c-1.0106 0.1999-2.0543 0.3045-3.1208 0.3045-0.8837 0-1.6-0.7163-1.6-1.6s0.7163-1.6 1.6-1.6c0.8569 0 1.6926-0.084 2.4998-0.2437 0.8669-0.1715 1.7086 0.3922 1.8801 1.2591s-0.3922 1.7086-1.2591 1.8801zm3.5505-2.8308c-0.4916-0.7343-0.2948-1.7281 0.4395-2.2197 1.3965-0.935 2.5992-2.1377 3.5342-3.5342 0.4916-0.7343 1.4854-0.9311 2.2197-0.4395 0.7342 0.4916 0.931 1.4854 0.4394 2.2197-1.1677 1.7441-2.669 3.2454-4.4131 4.4131-0.7343 0.4916-1.7281 0.2948-2.2197-0.4394zm7.1441-8.4848c-0.8669-0.1715-1.4306-1.0132-1.2591-1.8801 0.1597-0.8072 0.2437-1.6429 0.2437-2.4998s-0.084-1.6926-0.2437-2.4998c-0.1715-0.8669 0.3922-1.7086 1.2591-1.8801s1.7086 0.3922 1.8801 1.2591c0.1999 1.0106 0.3045 2.0543 0.3045 3.1208s-0.1046 2.1102-0.3045 3.1208c-0.1715 0.8669-1.0132 1.4306-1.8801 1.2591zm-0.9507-11.051c-0.7343 0.4916-1.7281 0.29485-2.2197-0.43944-0.935-1.3966-2.1377-2.5993-3.5342-3.5342-0.7343-0.49159-0.9311-1.4854-0.4395-2.2196 0.4916-0.7343 1.4854-0.93104 2.2197-0.43944 1.7441 1.1677 3.2454 2.669 4.4131 4.4131 0.4916 0.73429 0.2948 1.7281-0.4394 2.2197zm-8.4848-7.1441c-0.1715 0.86685-1.0132 1.4306-1.8801 1.2591-0.8072-0.1597-1.6429-0.24367-2.4998-0.24367-0.8836 0-1.6-0.71635-1.6-1.6 0-0.88366 0.7164-1.6 1.6-1.6 1.0665 9.324e-8 2.1102 0.10457 3.1208 0.30451 0.8669 0.17149 1.4306 1.0132 1.2591 1.8801z" clip-rule="evenodd" fill="#f7a541" fill-rule="evenodd"/>
   <path d="m16.361 10.4c-3.3665 0-5.9606 2.5799-5.9606 5.5999 0 3.0201 2.5941 5.6 5.9606 5.6 1.6932 0 3.207-0.6609 4.2845-1.7076 0.6339-0.6157 1.6468-0.601 2.2625 0.0328 0.6158 0.6338 0.6011 1.6468-0.0327 2.2625-1.6669 1.6192-3.9775 2.6123-6.5143 2.6123-4.9847 0-9.1606-3.8671-9.1606-8.8 0-4.9328 4.1759-8.8 9.1606-8.8 2.5368 0 4.8474 0.99313 6.5143 2.6124 0.6338 0.6157 0.6485 1.6287 0.0327 2.2625-0.6157 0.6338-1.6286 0.6485-2.2625 0.0328-1.0775-1.0467-2.5913-1.7076-4.2845-1.7076z" clip-rule="evenodd" fill="#f7a541" fill-rule="evenodd"/>
   <path d="m49.551 23c-3.6394 0-6.5509-2.7762-6.5509-6.8414 0-4.0651 2.9115-6.8413 6.5509-6.8413 1.9921 0 3.4096 0.77342 4.4439 1.9433 0.1533 0.1587 0.2299 0.3966 0.2299 0.6346 0 0.5156-0.4023 0.932-0.9003 0.932-0.2873 0-0.5363-0.119-0.6896-0.3173-0.747-0.8725-1.8388-1.4277-3.0839-1.4277-2.5859 0-4.578 2.1019-4.578 5.0764 0 2.9547 1.9921 5.0765 4.578 5.0765 1.2451 0 2.3369-0.5552 3.1031-1.4277 0.1532-0.1983 0.3831-0.3173 0.6704-0.3173 0.498 0 0.9003 0.4164 0.9003 0.932 0 0.238-0.0766 0.4759-0.2299 0.6346-1.0535 1.1699-2.4518 1.9433-4.4439 1.9433z" fill="#2d3142"/>
   <path d="m57.192 11.28c-0.5938 0-1.111-0.5156-1.111-1.1502 0-0.63455 0.5172-1.1303 1.111-1.1303 0.613 0 1.111 0.49575 1.111 1.1303 0 0.6346-0.498 1.1502-1.111 1.1502zm0 11.581c-0.4597 0-0.8428-0.3966-0.8428-0.8924v-7.9915c0-0.4957 0.3831-0.8923 0.862-0.8923 0.4597 0 0.8619 0.3966 0.8619 0.8923v7.9915c0 0.4958-0.4022 0.8924-0.8811 0.8924z" fill="#2d3142"/>
   <path d="m64.957 13.026c0.4981 0 0.7279 0.3966 0.7279 0.8527 0 0.4164-0.3065 0.7734-0.9003 0.8527-0.7662 0.0793-1.8388 0.6544-2.2411 1.3682v5.8697c0 0.4958-0.4022 0.8924-0.8619 0.8924-0.4789 0-0.862-0.3966-0.862-0.8924v-7.9915c0-0.4957 0.3831-0.8923 0.8428-0.8923 0.4789 0 0.8811 0.3966 0.8811 0.8923v0.6743c0.5172-0.7139 1.2451-1.3088 1.9155-1.527 0.2107-0.0594 0.3448-0.0991 0.498-0.0991z" fill="#2d3142"/>
   <path d="m66.717 17.963c0-2.8754 1.9154-5.017 4.712-5.017 1.3217 0 2.2411 0.4362 2.9499 1.1105 0.1532 0.1388 0.2681 0.3767 0.2681 0.5949 0 0.456-0.3447 0.813-0.7662 0.813-0.2107 0-0.383-0.0793-0.5171-0.1983-0.5364-0.5156-1.1302-0.7337-1.858-0.7337-1.8197 0-2.9882 1.4476-2.9882 3.4306s1.1685 3.4504 2.9882 3.4504c0.7278 0 1.3216-0.2181 1.858-0.7337 0.1149-0.119 0.3064-0.1983 0.498-0.1983 0.4405 0 0.7853 0.3569 0.7853 0.7932 0 0.2379-0.1149 0.4759-0.2681 0.6147-0.7088 0.6742-1.6282 1.1105-2.9499 1.1105-2.7966 0-4.712-2.1615-4.712-5.0368z" fill="#2d3142"/>
   <path d="m83.882 13.085c0.4789 0 0.8811 0.3966 0.8811 0.8923v7.9915c0 0.4958-0.4022 0.8924-0.8619 0.8924-0.4789 0-0.862-0.3966-0.862-0.8924v-0.5155c-0.6896 0.7932-1.858 1.5467-3.2946 1.5467-1.9729 0-2.9498-1.0312-2.9498-3.0538v-5.9689c0-0.4957 0.3831-0.8923 0.8619-0.8923 0.4597 0 0.862 0.3966 0.862 0.8923v5.374c0 1.5864 0.7662 2.0623 1.9538 2.0623 1.0726 0 2.0495-0.6346 2.5667-1.3484v-6.0879c0-0.4957 0.3831-0.8923 0.8428-0.8923z" fill="#2d3142"/>
   <path d="m88.337 11.28c-0.5938 0-1.111-0.5156-1.111-1.1502 0-0.63455 0.5172-1.1303 1.111-1.1303 0.6129 0 1.111 0.49575 1.111 1.1303 0 0.6346-0.4981 1.1502-1.111 1.1502zm0 11.581c-0.4597 0-0.8428-0.3966-0.8428-0.8924v-7.9915c0-0.4957 0.3831-0.8923 0.8619-0.8923 0.4598 0 0.862 0.3966 0.862 0.8923v7.9915c0 0.4958-0.4022 0.8924-0.8811 0.8924z" fill="#2d3142"/>
   <path d="m95.547 21.295c0.4406 0 0.7279 0.3173 0.7279 0.7536 0 0.3371-0.1724 0.575-0.4406 0.6742-0.3256 0.1586-0.7662 0.2776-1.3217 0.2776-1.4557 0-2.2027-0.8527-2.2027-2.3598v-5.8895h-0.8812c-0.4022 0-0.7661-0.3569-0.7661-0.7932 0-0.4164 0.3639-0.7734 0.7661-0.7734h0.8812v-1.8243c0-0.4958 0.3831-0.8924 0.8619-0.8924 0.4597 0 0.862 0.3966 0.862 0.8924v1.8243h1.2067c0.4214 0 0.7662 0.357 0.7662 0.7734 0 0.4363-0.3448 0.7932-0.7662 0.7932h-1.2067v5.4929c0 0.6742 0.3065 1.17 0.9003 1.17 0.3256 0 0.4405-0.119 0.6129-0.119z" fill="#2d3142"/>
   <path d="m108.81 23c-3.639 0-6.551-2.7762-6.551-6.8414 0-4.0651 2.912-6.8413 6.551-6.8413 1.992 0 3.409 0.77342 4.444 1.9433 0.153 0.1587 0.23 0.3966 0.23 0.6346 0 0.5156-0.403 0.932-0.901 0.932-0.287 0-0.536-0.119-0.689-0.3173-0.747-0.8725-1.839-1.4277-3.084-1.4277-2.586 0-4.578 2.1019-4.578 5.0764 0 2.9547 1.992 5.0765 4.578 5.0765 1.245 0 2.337-0.5552 3.103-1.4277 0.153-0.1983 0.383-0.3173 0.67-0.3173 0.498 0 0.901 0.4164 0.901 0.932 0 0.238-0.077 0.4759-0.23 0.6346-1.054 1.1699-2.452 1.9433-4.444 1.9433z" fill="#2d3142"/>
   <path d="m119.32 12.946c2.011 0 3.716 0.9122 3.716 3.3513v5.6713c0 0.4958-0.402 0.8924-0.862 0.8924s-0.862-0.3966-0.862-0.8924v-0.2776c-0.709 0.8527-1.781 1.3088-3.026 1.3088-1.533 0-3.218-1.0708-3.218-3.1728 0-2.1813 1.666-3.1331 3.218-3.1331 1.245 0 2.317 0.4164 3.026 1.2691v-1.5864c0-1.1898-0.939-1.9037-2.26-1.9037-0.843 0-1.571 0.2578-2.28 0.8328-0.115 0.0794-0.268 0.1389-0.421 0.1389-0.383 0-0.69-0.3372-0.69-0.7338 0-0.2379 0.115-0.456 0.288-0.575 0.977-0.8131 2.088-1.1898 3.371-1.1898zm-0.383 8.8045c0.958 0 1.858-0.3768 2.375-1.0906v-1.6261c-0.517-0.7139-1.417-1.0907-2.375-1.0907-1.245 0-2.126 0.7734-2.126 1.9037s0.881 1.9037 2.126 1.9037z" fill="#2d3142"/>
   <path d="m130.8 12.946c1.954 0 2.969 1.0708 2.969 3.0935v5.9291c0 0.4958-0.402 0.8924-0.881 0.8924-0.46 0-0.843-0.3966-0.843-0.8924v-5.3342c0-1.5864-0.785-2.102-1.973-2.102-1.073 0-2.049 0.6742-2.547 1.3881v6.0481c0 0.4958-0.403 0.8924-0.862 0.8924-0.479 0-0.862-0.3966-0.862-0.8924v-7.9915c0-0.4957 0.383-0.8923 0.842-0.8923 0.479 0 0.882 0.3966 0.882 0.8923v0.5354c0.632-0.7535 1.858-1.5665 3.275-1.5665z" fill="#2d3142"/>
   <path d="m143.38 13.085c0.479 0 0.862 0.3966 0.862 0.8923 0 0.119-0.038 0.238-0.077 0.357l-3.045 7.6742c-0.211 0.5156-0.69 0.8527-1.226 0.8527-0.575 0-1.054-0.3371-1.245-0.8527l-3.065-7.6941c-0.038-0.0991-0.058-0.2181-0.058-0.3371 0-0.4957 0.364-0.8923 0.843-0.8923 0.345 0 0.69 0.2379 0.805 0.5552l2.701 7.0992 2.7-7.0992c0.115-0.3173 0.441-0.5552 0.805-0.5552z" fill="#2d3142"/>
   <path d="m149.74 12.946c2.011 0 3.716 0.9122 3.716 3.3513v5.6713c0 0.4958-0.403 0.8924-0.862 0.8924-0.46 0-0.862-0.3966-0.862-0.8924v-0.2776c-0.709 0.8527-1.782 1.3088-3.027 1.3088-1.532 0-3.218-1.0708-3.218-3.1728 0-2.1813 1.667-3.1331 3.218-3.1331 1.245 0 2.318 0.4164 3.027 1.2691v-1.5864c0-1.1898-0.939-1.9037-2.261-1.9037-0.842 0-1.57 0.2578-2.279 0.8328-0.115 0.0794-0.268 0.1389-0.421 0.1389-0.384 0-0.69-0.3372-0.69-0.7338 0-0.2379 0.115-0.456 0.287-0.575 0.977-0.8131 2.088-1.1898 3.372-1.1898zm-0.384 8.8045c0.958 0 1.858-0.3768 2.376-1.0906v-1.6261c-0.518-0.7139-1.418-1.0907-2.376-1.0907-1.245 0-2.126 0.7734-2.126 1.9037s0.881 1.9037 2.126 1.9037z" fill="#2d3142"/>
   <path d="m155.89 21.929c-0.192-0.1388-0.326-0.3768-0.326-0.6346 0-0.4362 0.326-0.7734 0.747-0.7734 0.153 0 0.306 0.0595 0.421 0.1389 0.709 0.5354 1.629 0.9121 2.605 0.9121 1.303 0 1.993-0.5552 1.993-1.3682 0-0.9519-1.054-1.2692-2.242-1.5468-1.57-0.3767-3.409-0.813-3.409-2.8753 0-1.5269 1.264-2.8357 3.524-2.8357 1.284 0 2.299 0.3966 3.084 0.9915 0.173 0.1388 0.307 0.3371 0.307 0.5949 0 0.3966-0.326 0.7337-0.709 0.7337-0.134 0-0.287-0.0595-0.383-0.1388-0.594-0.4561-1.398-0.7337-2.279-0.7337-1.169 0-1.897 0.4759-1.897 1.2493 0 0.8328 0.996 1.1104 2.146 1.3881 1.609 0.3767 3.524 0.8328 3.524 3.034 0 1.6458-1.303 2.9348-3.735 2.9348-1.284 0-2.433-0.3371-3.371-1.0708z" fill="#2d3142"/>
  </g>
 </g>
</g></svg>